# MagicaVoxel @ Ephtracy

# group
o 

# material
mtllib Sheald.mtl
usemtl palette

# normals
vn -1 0 0
vn 1 0 0
vn 0 0 1
vn 0 0 -1
vn 0 -1 0
vn 0 1 0

# texcoords
vt 0.853516 0.5
vt 0.861328 0.5
vt 0.982422 0.5
vt 0.994141 0.5

# verts
v -0.7 0.4 0
v -0.7 0.4 -0.2
v -0.7 1.2 0
v -0.7 1.2 -0.2
v -0.6 0.5 0.1
v -0.6 0.5 0
v -0.6 1.2 0.1
v -0.6 1.2 0
v -0.6 1.2 -0.2
v -0.6 1.3 0
v -0.6 1.3 -0.2
v -0.5 0.5 0
v -0.5 0.5 -0.2
v -0.5 0.6 0
v -0.5 0.6 -0.2
v -0.5 1.2 0.1
v -0.5 1.2 0
v -0.5 1.3 0.1
v -0.5 1.3 0
v -0.5 1.3 -0.2
v -0.5 1.5 0
v -0.5 1.5 -0.2
v -0.4 0.2 0
v -0.4 0.2 -0.2
v -0.4 0.3 0.1
v -0.4 0.3 0
v -0.4 0.5 0.1
v -0.4 0.5 0
v -0.4 0.5 -0.2
v -0.4 1.3 0.1
v -0.4 1.3 0
v -0.4 1.5 0.1
v -0.4 1.5 0
v -0.4 1.5 -0.2
v -0.4 1.6 0
v -0.4 1.6 -0.2
v -0.3 0.1 0
v -0.3 0.1 -0.2
v -0.3 0.2 0.1
v -0.3 0.2 0
v -0.3 0.2 -0.2
v -0.3 0.3 0.1
v -0.3 0.3 0
v -0.2 0 0
v -0.2 0 -0.2
v -0.2 0.1 0.1
v -0.2 0.1 0
v -0.2 0.1 -0.2
v -0.2 0.2 0.1
v -0.2 0.2 0
v -0.2 0.8 0.2
v -0.2 0.8 0.1
v -0.2 1 0.2
v -0.2 1 0.1
v -0.1 0 0.1
v -0.1 0 0
v -0.1 0.1 0.1
v -0.1 0.1 0
v -0.1 0.7 0.2
v -0.1 0.7 0.1
v -0.1 0.8 0.2
v -0.1 0.8 0.1
v -0.1 1 0.2
v -0.1 1 0.1
v -0.1 1.1 0.2
v -0.1 1.1 0.1
v 0.2 0.1 0
v 0.2 0.1 -0.2
v 0.2 0.2 0
v 0.2 0.2 -0.2
v 0.3 0.2 0
v 0.3 0.2 -0.2
v 0.3 0.3 0
v 0.3 0.5 0
v 0.3 0.5 -0.2
v 0.4 0.5 0
v 0.4 0.5 -0.2
v 0.4 0.6 0
v 0.4 0.6 -0.2
v 0.4 1.3 0
v 0.4 1.3 -0.2
v 0.4 1.5 0
v 0.4 1.5 -0.2
v 0.5 0.4 0
v 0.5 0.4 -0.2
v 0.5 0.5 0
v 0.5 0.5 -0.2
v 0.5 1.2 0
v 0.5 1.2 -0.2
v 0.5 1.3 0
v 0.5 1.3 -0.2
v 0.6 0.5 0
v 0.6 0.5 -0.2
v 0.6 1.2 0
v 0.6 1.2 -0.2
v -0.6 0.5 0
v -0.6 0.5 -0.2
v -0.6 1.2 0
v -0.6 1.2 -0.2
v -0.5 0.4 0
v -0.5 0.4 -0.2
v -0.5 0.5 0
v -0.5 0.5 -0.2
v -0.5 1.2 0
v -0.5 1.2 -0.2
v -0.5 1.3 0
v -0.5 1.3 -0.2
v -0.4 0.5 0
v -0.4 0.5 -0.2
v -0.4 0.6 0
v -0.4 0.6 -0.2
v -0.4 1.3 0
v -0.4 1.3 -0.2
v -0.4 1.5 0
v -0.4 1.5 -0.2
v -0.3 0.2 0
v -0.3 0.2 -0.2
v -0.3 0.3 0
v -0.3 0.5 0
v -0.3 0.5 -0.2
v -0.2 0.1 0
v -0.2 0.1 -0.2
v -0.2 0.2 0
v -0.2 0.2 -0.2
v 0.1 0 0.1
v 0.1 0 0
v 0.1 0.1 0.1
v 0.1 0.1 0
v 0.1 0.7 0.2
v 0.1 0.7 0.1
v 0.1 0.8 0.2
v 0.1 0.8 0.1
v 0.1 1 0.2
v 0.1 1 0.1
v 0.1 1.1 0.2
v 0.1 1.1 0.1
v 0.2 0 0
v 0.2 0 -0.2
v 0.2 0.1 0.1
v 0.2 0.1 0
v 0.2 0.1 -0.2
v 0.2 0.2 0.1
v 0.2 0.2 0
v 0.2 0.8 0.2
v 0.2 0.8 0.1
v 0.2 1 0.2
v 0.2 1 0.1
v 0.3 0.1 0
v 0.3 0.1 -0.2
v 0.3 0.2 0.1
v 0.3 0.2 0
v 0.3 0.2 -0.2
v 0.3 0.3 0.1
v 0.3 0.3 0
v 0.4 0.2 0
v 0.4 0.2 -0.2
v 0.4 0.3 0.1
v 0.4 0.3 0
v 0.4 0.5 0.1
v 0.4 0.5 0
v 0.4 0.5 -0.2
v 0.4 1.3 0.1
v 0.4 1.3 0
v 0.4 1.5 0.1
v 0.4 1.5 0
v 0.4 1.5 -0.2
v 0.4 1.6 0
v 0.4 1.6 -0.2
v 0.5 0.5 0
v 0.5 0.5 -0.2
v 0.5 0.6 0
v 0.5 0.6 -0.2
v 0.5 1.2 0.1
v 0.5 1.2 0
v 0.5 1.3 0.1
v 0.5 1.3 0
v 0.5 1.3 -0.2
v 0.5 1.5 0
v 0.5 1.5 -0.2
v 0.6 0.5 0.1
v 0.6 0.5 0
v 0.6 1.2 0.1
v 0.6 1.2 0
v 0.6 1.2 -0.2
v 0.6 1.3 0
v 0.6 1.3 -0.2
v 0.7 0.4 0
v 0.7 0.4 -0.2
v 0.7 1.2 0
v 0.7 1.2 -0.2
v -0.2 0.8 0.2
v -0.2 1 0.2
v -0.1 0.7 0.2
v -0.1 0.8 0.2
v -0.1 1 0.2
v -0.1 1.1 0.2
v 0.1 0.7 0.2
v 0.1 0.8 0.2
v 0.1 1 0.2
v 0.1 1.1 0.2
v 0.2 0.8 0.2
v 0.2 1 0.2
v -0.6 0.5 0.1
v -0.6 1.2 0.1
v -0.5 0.6 0.1
v -0.5 0.8 0.1
v -0.5 1 0.1
v -0.5 1.2 0.1
v -0.5 1.3 0.1
v -0.4 0.3 0.1
v -0.4 0.5 0.1
v -0.4 0.6 0.1
v -0.4 1.2 0.1
v -0.4 1.3 0.1
v -0.4 1.5 0.1
v -0.3 0.2 0.1
v -0.3 0.3 0.1
v -0.3 0.5 0.1
v -0.3 1.3 0.1
v -0.3 1.4 0.1
v -0.2 0.1 0.1
v -0.2 0.2 0.1
v -0.2 0.3 0.1
v -0.2 0.7 0.1
v -0.2 0.8 0.1
v -0.2 1 0.1
v -0.2 1.1 0.1
v -0.1 0 0.1
v -0.1 0.1 0.1
v -0.1 0.2 0.1
v -0.1 0.6 0.1
v -0.1 0.7 0.1
v -0.1 0.8 0.1
v -0.1 1 0.1
v -0.1 1.1 0.1
v -0.1 1.2 0.1
v 0.1 0 0.1
v 0.1 0.1 0.1
v 0.1 0.2 0.1
v 0.1 0.6 0.1
v 0.1 0.7 0.1
v 0.1 0.8 0.1
v 0.1 1 0.1
v 0.1 1.1 0.1
v 0.1 1.2 0.1
v 0.2 0.1 0.1
v 0.2 0.2 0.1
v 0.2 0.3 0.1
v 0.2 0.7 0.1
v 0.2 0.8 0.1
v 0.2 1 0.1
v 0.2 1.1 0.1
v 0.3 0.2 0.1
v 0.3 0.3 0.1
v 0.3 0.5 0.1
v 0.3 1.3 0.1
v 0.3 1.4 0.1
v 0.4 0.3 0.1
v 0.4 0.5 0.1
v 0.4 0.6 0.1
v 0.4 1.2 0.1
v 0.4 1.3 0.1
v 0.4 1.5 0.1
v 0.5 0.6 0.1
v 0.5 0.8 0.1
v 0.5 1 0.1
v 0.5 1.2 0.1
v 0.5 1.3 0.1
v 0.6 0.5 0.1
v 0.6 1.2 0.1
v -0.7 0.4 0
v -0.7 1.2 0
v -0.6 0.5 0
v -0.6 1.2 0
v -0.6 1.3 0
v -0.5 0.4 0
v -0.5 0.5 0
v -0.5 1.2 0
v -0.5 1.3 0
v -0.5 1.5 0
v -0.4 0.2 0
v -0.4 0.3 0
v -0.4 1.3 0
v -0.4 1.5 0
v -0.4 1.6 0
v -0.3 0.1 0
v -0.3 0.2 0
v -0.3 0.3 0
v -0.2 0 0
v -0.2 0.1 0
v -0.2 0.2 0
v -0.1 0 0
v -0.1 0.1 0
v 0.1 0 0
v 0.1 0.1 0
v 0.2 0 0
v 0.2 0.1 0
v 0.2 0.2 0
v 0.3 0.1 0
v 0.3 0.2 0
v 0.3 0.3 0
v 0.4 0.2 0
v 0.4 0.3 0
v 0.4 1.3 0
v 0.4 1.5 0
v 0.4 1.6 0
v 0.5 0.4 0
v 0.5 0.5 0
v 0.5 1.2 0
v 0.5 1.3 0
v 0.5 1.5 0
v 0.6 0.5 0
v 0.6 1.2 0
v 0.6 1.3 0
v 0.7 0.4 0
v 0.7 1.2 0
v -0.6 0.5 0
v -0.6 1.2 0
v -0.5 0.5 0
v -0.5 0.6 0
v -0.5 0.8 0
v -0.5 1 0
v -0.5 1.2 0
v -0.5 1.3 0
v -0.4 0.5 0
v -0.4 0.6 0
v -0.4 1.2 0
v -0.4 1.3 0
v -0.4 1.5 0
v -0.3 0.2 0
v -0.3 0.3 0
v -0.3 0.5 0
v -0.3 1.3 0
v -0.3 1.4 0
v -0.2 0.1 0
v -0.2 0.2 0
v -0.2 0.3 0
v -0.2 0.7 0
v -0.2 0.8 0
v -0.2 1 0
v -0.2 1.1 0
v -0.1 0.1 0
v -0.1 0.2 0
v -0.1 0.6 0
v -0.1 0.7 0
v -0.1 1.1 0
v -0.1 1.2 0
v 0.1 0.1 0
v 0.1 0.2 0
v 0.1 0.6 0
v 0.1 0.7 0
v 0.1 1.1 0
v 0.1 1.2 0
v 0.2 0.1 0
v 0.2 0.2 0
v 0.2 0.3 0
v 0.2 0.7 0
v 0.2 0.8 0
v 0.2 1 0
v 0.2 1.1 0
v 0.3 0.2 0
v 0.3 0.3 0
v 0.3 0.5 0
v 0.3 1.3 0
v 0.3 1.4 0
v 0.4 0.5 0
v 0.4 0.6 0
v 0.4 1.2 0
v 0.4 1.3 0
v 0.4 1.5 0
v 0.5 0.5 0
v 0.5 0.6 0
v 0.5 0.8 0
v 0.5 1 0
v 0.5 1.2 0
v 0.5 1.3 0
v 0.6 0.5 0
v 0.6 1.2 0
v -0.7 0.4 -0.2
v -0.7 1.2 -0.2
v -0.6 0.5 -0.2
v -0.6 1.2 -0.2
v -0.6 1.3 -0.2
v -0.5 0.4 -0.2
v -0.5 0.5 -0.2
v -0.5 0.6 -0.2
v -0.5 1.2 -0.2
v -0.5 1.3 -0.2
v -0.5 1.5 -0.2
v -0.4 0.2 -0.2
v -0.4 0.5 -0.2
v -0.4 0.6 -0.2
v -0.4 1.3 -0.2
v -0.4 1.5 -0.2
v -0.4 1.6 -0.2
v -0.3 0.1 -0.2
v -0.3 0.2 -0.2
v -0.3 0.5 -0.2
v -0.2 0 -0.2
v -0.2 0.1 -0.2
v -0.2 0.2 -0.2
v 0.2 0 -0.2
v 0.2 0.1 -0.2
v 0.2 0.2 -0.2
v 0.3 0.1 -0.2
v 0.3 0.2 -0.2
v 0.3 0.5 -0.2
v 0.4 0.2 -0.2
v 0.4 0.5 -0.2
v 0.4 0.6 -0.2
v 0.4 1.3 -0.2
v 0.4 1.5 -0.2
v 0.4 1.6 -0.2
v 0.5 0.4 -0.2
v 0.5 0.5 -0.2
v 0.5 0.6 -0.2
v 0.5 1.2 -0.2
v 0.5 1.3 -0.2
v 0.5 1.5 -0.2
v 0.6 0.5 -0.2
v 0.6 1.2 -0.2
v 0.6 1.3 -0.2
v 0.7 0.4 -0.2
v 0.7 1.2 -0.2
v -0.1 0 0.1
v 0.1 0 0.1
v -0.2 0 0
v -0.1 0 0
v 0.1 0 0
v 0.2 0 0
v -0.2 0 -0.2
v 0.2 0 -0.2
v -0.2 0.1 0.1
v -0.1 0.1 0.1
v 0.1 0.1 0.1
v 0.2 0.1 0.1
v -0.3 0.1 0
v -0.2 0.1 0
v -0.1 0.1 0
v 0.1 0.1 0
v 0.2 0.1 0
v 0.3 0.1 0
v -0.3 0.1 -0.2
v -0.2 0.1 -0.2
v 0.2 0.1 -0.2
v 0.3 0.1 -0.2
v -0.3 0.2 0.1
v -0.2 0.2 0.1
v 0.2 0.2 0.1
v 0.3 0.2 0.1
v -0.4 0.2 0
v -0.3 0.2 0
v -0.2 0.2 0
v 0.2 0.2 0
v 0.3 0.2 0
v 0.4 0.2 0
v -0.4 0.2 -0.2
v -0.3 0.2 -0.2
v 0.3 0.2 -0.2
v 0.4 0.2 -0.2
v -0.4 0.3 0.1
v -0.3 0.3 0.1
v 0.3 0.3 0.1
v 0.4 0.3 0.1
v -0.4 0.3 0
v -0.3 0.3 0
v 0.3 0.3 0
v 0.4 0.3 0
v -0.7 0.4 0
v -0.5 0.4 0
v 0.5 0.4 0
v 0.7 0.4 0
v -0.7 0.4 -0.2
v -0.5 0.4 -0.2
v 0.5 0.4 -0.2
v 0.7 0.4 -0.2
v -0.6 0.5 0.1
v -0.4 0.5 0.1
v 0.4 0.5 0.1
v 0.6 0.5 0.1
v -0.6 0.5 0
v -0.5 0.5 0
v -0.4 0.5 0
v 0.4 0.5 0
v 0.5 0.5 0
v 0.6 0.5 0
v -0.5 0.5 -0.2
v -0.4 0.5 -0.2
v 0.4 0.5 -0.2
v 0.5 0.5 -0.2
v -0.1 0.7 0.2
v 0.1 0.7 0.2
v -0.1 0.7 0.1
v 0.1 0.7 0.1
v -0.2 0.8 0.2
v -0.1 0.8 0.2
v 0.1 0.8 0.2
v 0.2 0.8 0.2
v -0.2 0.8 0.1
v -0.1 0.8 0.1
v 0.1 0.8 0.1
v 0.2 0.8 0.1
v -0.6 1.2 0
v -0.5 1.2 0
v 0.5 1.2 0
v 0.6 1.2 0
v -0.6 1.2 -0.2
v -0.5 1.2 -0.2
v 0.5 1.2 -0.2
v 0.6 1.2 -0.2
v -0.5 1.3 0
v -0.4 1.3 0
v 0.4 1.3 0
v 0.5 1.3 0
v -0.5 1.3 -0.2
v -0.4 1.3 -0.2
v 0.4 1.3 -0.2
v 0.5 1.3 -0.2
v -0.4 1.5 0
v 0.4 1.5 0
v -0.4 1.5 -0.2
v 0.4 1.5 -0.2
v -0.2 0.1 0
v -0.1 0.1 0
v 0.1 0.1 0
v 0.2 0.1 0
v -0.2 0.1 -0.2
v 0.2 0.1 -0.2
v -0.3 0.2 0
v -0.2 0.2 0
v 0.2 0.2 0
v 0.3 0.2 0
v -0.3 0.2 -0.2
v -0.2 0.2 -0.2
v 0.2 0.2 -0.2
v 0.3 0.2 -0.2
v -0.6 0.5 0
v -0.5 0.5 0
v -0.4 0.5 0
v -0.3 0.5 0
v 0.3 0.5 0
v 0.4 0.5 0
v 0.5 0.5 0
v 0.6 0.5 0
v -0.6 0.5 -0.2
v -0.5 0.5 -0.2
v -0.4 0.5 -0.2
v -0.3 0.5 -0.2
v 0.3 0.5 -0.2
v 0.4 0.5 -0.2
v 0.5 0.5 -0.2
v 0.6 0.5 -0.2
v -0.5 0.6 0
v -0.4 0.6 0
v 0.4 0.6 0
v 0.5 0.6 0
v -0.5 0.6 -0.2
v -0.4 0.6 -0.2
v 0.4 0.6 -0.2
v 0.5 0.6 -0.2
v -0.2 1 0.2
v -0.1 1 0.2
v 0.1 1 0.2
v 0.2 1 0.2
v -0.2 1 0.1
v -0.1 1 0.1
v 0.1 1 0.1
v 0.2 1 0.1
v -0.1 1.1 0.2
v 0.1 1.1 0.2
v -0.1 1.1 0.1
v 0.1 1.1 0.1
v -0.6 1.2 0.1
v -0.5 1.2 0.1
v 0.5 1.2 0.1
v 0.6 1.2 0.1
v -0.7 1.2 0
v -0.6 1.2 0
v -0.5 1.2 0
v 0.5 1.2 0
v 0.6 1.2 0
v 0.7 1.2 0
v -0.7 1.2 -0.2
v -0.6 1.2 -0.2
v 0.6 1.2 -0.2
v 0.7 1.2 -0.2
v -0.5 1.3 0.1
v -0.4 1.3 0.1
v 0.4 1.3 0.1
v 0.5 1.3 0.1
v -0.6 1.3 0
v -0.5 1.3 0
v -0.4 1.3 0
v 0.4 1.3 0
v 0.5 1.3 0
v 0.6 1.3 0
v -0.6 1.3 -0.2
v -0.5 1.3 -0.2
v 0.5 1.3 -0.2
v 0.6 1.3 -0.2
v -0.4 1.5 0.1
v 0.4 1.5 0.1
v -0.5 1.5 0
v -0.4 1.5 0
v 0.4 1.5 0
v 0.5 1.5 0
v -0.5 1.5 -0.2
v -0.4 1.5 -0.2
v 0.4 1.5 -0.2
v 0.5 1.5 -0.2
v -0.4 1.6 0
v 0.4 1.6 0
v -0.4 1.6 -0.2
v 0.4 1.6 -0.2

# faces
f 3/3/1 2/3/1 1/3/1
f 4/3/1 2/3/1 3/3/1
f 7/4/1 6/4/1 5/4/1
f 8/4/1 6/4/1 7/4/1
f 10/3/1 9/3/1 8/3/1
f 11/3/1 9/3/1 10/3/1
f 14/3/1 13/3/1 12/3/1
f 15/3/1 13/3/1 14/3/1
f 18/4/1 17/4/1 16/4/1
f 19/4/1 17/4/1 18/4/1
f 21/3/1 20/3/1 19/3/1
f 22/3/1 20/3/1 21/3/1
f 26/3/1 24/3/1 23/3/1
f 27/4/1 26/4/1 25/4/1
f 28/3/1 24/3/1 26/3/1
f 28/4/1 26/4/1 27/4/1
f 29/3/1 24/3/1 28/3/1
f 32/4/1 31/4/1 30/4/1
f 33/4/1 31/4/1 32/4/1
f 35/3/1 34/3/1 33/3/1
f 36/3/1 34/3/1 35/3/1
f 40/3/1 38/3/1 37/3/1
f 41/3/1 38/3/1 40/3/1
f 42/4/1 40/4/1 39/4/1
f 43/4/1 40/4/1 42/4/1
f 47/3/1 45/3/1 44/3/1
f 48/3/1 45/3/1 47/3/1
f 49/4/1 47/4/1 46/4/1
f 50/4/1 47/4/1 49/4/1
f 53/1/1 52/1/1 51/1/1
f 54/1/1 52/1/1 53/1/1
f 57/4/1 56/4/1 55/4/1
f 58/4/1 56/4/1 57/4/1
f 61/1/1 60/1/1 59/1/1
f 62/1/1 60/1/1 61/1/1
f 65/1/1 64/1/1 63/1/1
f 66/1/1 64/1/1 65/1/1
f 69/3/1 68/3/1 67/3/1
f 70/3/1 68/3/1 69/3/1
f 73/3/1 72/3/1 71/3/1
f 74/3/1 72/3/1 73/3/1
f 75/3/1 72/3/1 74/3/1
f 78/3/1 77/3/1 76/3/1
f 79/3/1 77/3/1 78/3/1
f 82/3/1 81/3/1 80/3/1
f 83/3/1 81/3/1 82/3/1
f 86/3/1 85/3/1 84/3/1
f 87/3/1 85/3/1 86/3/1
f 90/3/1 89/3/1 88/3/1
f 91/3/1 89/3/1 90/3/1
f 94/3/1 93/3/1 92/3/1
f 95/3/1 93/3/1 94/3/1
f 96/3/2 97/3/2 98/3/2
f 98/3/2 97/3/2 99/3/2
f 100/3/2 101/3/2 102/3/2
f 102/3/2 101/3/2 103/3/2
f 104/3/2 105/3/2 106/3/2
f 106/3/2 105/3/2 107/3/2
f 108/3/2 109/3/2 110/3/2
f 110/3/2 109/3/2 111/3/2
f 112/3/2 113/3/2 114/3/2
f 114/3/2 113/3/2 115/3/2
f 116/3/2 117/3/2 118/3/2
f 118/3/2 117/3/2 119/3/2
f 119/3/2 117/3/2 120/3/2
f 121/3/2 122/3/2 123/3/2
f 123/3/2 122/3/2 124/3/2
f 125/4/2 126/4/2 127/4/2
f 127/4/2 126/4/2 128/4/2
f 129/1/2 130/1/2 131/1/2
f 131/1/2 130/1/2 132/1/2
f 133/1/2 134/1/2 135/1/2
f 135/1/2 134/1/2 136/1/2
f 137/3/2 138/3/2 140/3/2
f 140/3/2 138/3/2 141/3/2
f 139/4/2 140/4/2 142/4/2
f 142/4/2 140/4/2 143/4/2
f 144/1/2 145/1/2 146/1/2
f 146/1/2 145/1/2 147/1/2
f 148/3/2 149/3/2 151/3/2
f 151/3/2 149/3/2 152/3/2
f 150/4/2 151/4/2 153/4/2
f 153/4/2 151/4/2 154/4/2
f 155/3/2 156/3/2 158/3/2
f 157/4/2 158/4/2 159/4/2
f 158/3/2 156/3/2 160/3/2
f 159/4/2 158/4/2 160/4/2
f 160/3/2 156/3/2 161/3/2
f 162/4/2 163/4/2 164/4/2
f 164/4/2 163/4/2 165/4/2
f 165/3/2 166/3/2 167/3/2
f 167/3/2 166/3/2 168/3/2
f 169/3/2 170/3/2 171/3/2
f 171/3/2 170/3/2 172/3/2
f 173/4/2 174/4/2 175/4/2
f 175/4/2 174/4/2 176/4/2
f 176/3/2 177/3/2 178/3/2
f 178/3/2 177/3/2 179/3/2
f 180/4/2 181/4/2 182/4/2
f 182/4/2 181/4/2 183/4/2
f 183/3/2 184/3/2 185/3/2
f 185/3/2 184/3/2 186/3/2
f 187/3/2 188/3/2 189/3/2
f 189/3/2 188/3/2 190/3/2
f 194/1/3 192/1/3 191/1/3
f 195/1/3 192/1/3 194/1/3
f 197/1/3 194/1/3 193/1/3
f 197/1/3 196/1/3 195/1/3
f 197/1/3 195/1/3 194/1/3
f 198/1/3 196/1/3 197/1/3
f 199/1/3 196/1/3 198/1/3
f 200/1/3 196/1/3 199/1/3
f 201/1/3 199/1/3 198/1/3
f 202/1/3 199/1/3 201/1/3
f 205/4/3 204/4/3 203/4/3
f 206/4/3 204/4/3 205/4/3
f 207/4/3 204/4/3 206/4/3
f 208/4/3 204/4/3 207/4/3
f 211/4/3 205/4/3 203/4/3
f 212/3/3 206/3/3 205/3/3
f 212/4/3 205/4/3 211/4/3
f 213/4/3 209/4/3 208/4/3
f 213/3/3 208/3/3 207/3/3
f 214/4/3 209/4/3 213/4/3
f 217/4/3 211/4/3 210/4/3
f 218/3/3 212/3/3 211/3/3
f 218/4/3 211/4/3 217/4/3
f 219/4/3 215/4/3 214/4/3
f 219/3/3 214/3/3 213/3/3
f 220/4/3 215/4/3 219/4/3
f 222/4/3 217/4/3 216/4/3
f 223/3/3 218/3/3 217/3/3
f 223/4/3 217/4/3 222/4/3
f 224/3/3 206/3/3 212/3/3
f 224/3/3 218/3/3 223/3/3
f 224/3/3 212/3/3 218/3/3
f 225/4/3 207/4/3 206/4/3
f 225/3/3 206/3/3 224/3/3
f 226/3/3 213/3/3 207/3/3
f 226/4/3 207/4/3 225/4/3
f 226/3/3 219/3/3 213/3/3
f 226/3/3 220/3/3 219/3/3
f 227/3/3 220/3/3 226/3/3
f 229/4/3 222/4/3 221/4/3
f 230/3/3 223/3/3 222/3/3
f 230/3/3 224/3/3 223/3/3
f 230/4/3 222/4/3 229/4/3
f 231/3/3 224/3/3 230/3/3
f 232/2/3 225/2/3 224/2/3
f 232/3/3 224/3/3 231/3/3
f 233/2/3 225/2/3 232/2/3
f 234/2/3 227/2/3 226/2/3
f 235/3/3 220/3/3 227/3/3
f 235/2/3 227/2/3 234/2/3
f 236/3/3 220/3/3 235/3/3
f 237/4/3 229/4/3 228/4/3
f 238/3/3 231/3/3 230/3/3
f 238/4/3 229/4/3 237/4/3
f 238/3/3 230/3/3 229/3/3
f 239/3/3 231/3/3 238/3/3
f 240/2/3 232/2/3 231/2/3
f 240/3/3 231/3/3 239/3/3
f 241/2/3 232/2/3 240/2/3
f 244/2/3 236/2/3 235/2/3
f 245/3/3 220/3/3 236/3/3
f 245/2/3 236/2/3 244/2/3
f 246/4/3 239/4/3 238/4/3
f 247/3/3 240/3/3 239/3/3
f 247/4/3 239/4/3 246/4/3
f 247/3/3 241/3/3 240/3/3
f 248/3/3 241/3/3 247/3/3
f 249/2/3 242/2/3 241/2/3
f 249/3/3 241/3/3 248/3/3
f 250/2/3 242/2/3 249/2/3
f 251/2/3 244/2/3 243/2/3
f 252/3/3 245/3/3 244/3/3
f 252/2/3 244/2/3 251/2/3
f 253/4/3 248/4/3 247/4/3
f 254/3/3 250/3/3 249/3/3
f 254/4/3 248/4/3 253/4/3
f 254/3/3 249/3/3 248/3/3
f 255/3/3 250/3/3 254/3/3
f 256/3/3 245/3/3 252/3/3
f 256/3/3 220/3/3 245/3/3
f 256/3/3 252/3/3 251/3/3
f 257/4/3 215/4/3 220/4/3
f 257/3/3 220/3/3 256/3/3
f 258/4/3 255/4/3 254/4/3
f 259/3/3 250/3/3 255/3/3
f 259/4/3 255/4/3 258/4/3
f 260/3/3 250/3/3 259/3/3
f 261/3/3 256/3/3 251/3/3
f 262/4/3 257/4/3 256/4/3
f 262/3/3 256/3/3 261/3/3
f 263/4/3 215/4/3 257/4/3
f 263/4/3 257/4/3 262/4/3
f 264/3/3 250/3/3 260/3/3
f 264/4/3 260/4/3 259/4/3
f 265/4/3 251/4/3 250/4/3
f 265/3/3 250/3/3 264/3/3
f 266/3/3 261/3/3 251/3/3
f 266/4/3 251/4/3 265/4/3
f 267/4/3 262/4/3 261/4/3
f 267/3/3 261/3/3 266/3/3
f 268/4/3 262/4/3 267/4/3
f 269/4/3 266/4/3 265/4/3
f 269/4/3 264/4/3 259/4/3
f 269/4/3 267/4/3 266/4/3
f 269/4/3 265/4/3 264/4/3
f 270/4/3 267/4/3 269/4/3
f 273/3/3 272/3/3 271/3/3
f 274/3/3 272/3/3 273/3/3
f 276/3/3 273/3/3 271/3/3
f 277/3/3 273/3/3 276/3/3
f 278/3/3 275/3/3 274/3/3
f 279/3/3 275/3/3 278/3/3
f 283/3/3 280/3/3 279/3/3
f 284/3/3 280/3/3 283/3/3
f 287/3/3 282/3/3 281/3/3
f 288/3/3 282/3/3 287/3/3
f 290/3/3 287/3/3 286/3/3
f 291/3/3 287/3/3 290/3/3
f 292/3/3 290/3/3 289/3/3
f 293/3/3 290/3/3 292/3/3
f 296/3/3 295/3/3 294/3/3
f 297/3/3 295/3/3 296/3/3
f 299/3/3 298/3/3 297/3/3
f 300/3/3 298/3/3 299/3/3
f 302/3/3 301/3/3 300/3/3
f 303/3/3 301/3/3 302/3/3
f 305/3/3 285/3/3 284/3/3
f 306/3/3 285/3/3 305/3/3
f 310/3/3 305/3/3 304/3/3
f 311/3/3 305/3/3 310/3/3
f 312/3/3 308/3/3 307/3/3
f 313/3/3 310/3/3 309/3/3
f 314/3/3 310/3/3 313/3/3
f 315/3/3 312/3/3 307/3/3
f 315/3/3 313/3/3 312/3/3
f 316/3/3 313/3/3 315/3/3
f 317/4/4 318/4/4 319/4/4
f 319/4/4 318/4/4 320/4/4
f 320/4/4 318/4/4 321/4/4
f 321/4/4 318/4/4 322/4/4
f 322/4/4 318/4/4 323/4/4
f 320/3/4 321/3/4 326/3/4
f 323/4/4 324/4/4 327/4/4
f 322/3/4 323/3/4 327/3/4
f 327/4/4 324/4/4 328/4/4
f 325/3/4 326/3/4 332/3/4
f 327/3/4 328/3/4 333/3/4
f 328/4/4 329/4/4 333/4/4
f 333/4/4 329/4/4 334/4/4
f 330/4/4 331/4/4 336/4/4
f 331/3/4 332/3/4 337/3/4
f 336/4/4 331/4/4 337/4/4
f 326/3/4 321/3/4 338/3/4
f 337/3/4 332/3/4 338/3/4
f 332/3/4 326/3/4 338/3/4
f 321/4/4 322/4/4 339/4/4
f 338/3/4 321/3/4 339/3/4
f 322/3/4 327/3/4 340/3/4
f 339/4/4 322/4/4 340/4/4
f 327/3/4 333/3/4 340/3/4
f 333/3/4 334/3/4 340/3/4
f 340/3/4 334/3/4 341/3/4
f 335/4/4 336/4/4 342/4/4
f 336/3/4 337/3/4 343/3/4
f 342/4/4 336/4/4 343/4/4
f 337/3/4 338/3/4 343/3/4
f 343/3/4 338/3/4 344/3/4
f 340/2/4 341/2/4 345/2/4
f 344/3/4 338/3/4 345/3/4
f 338/2/4 339/2/4 345/2/4
f 339/2/4 340/2/4 345/2/4
f 341/3/4 334/3/4 346/3/4
f 345/2/4 341/2/4 346/2/4
f 346/3/4 334/3/4 347/3/4
f 343/3/4 344/3/4 348/3/4
f 342/3/4 343/3/4 348/3/4
f 348/3/4 344/3/4 349/3/4
f 346/2/4 347/2/4 350/2/4
f 349/3/4 344/3/4 350/3/4
f 344/2/4 345/2/4 350/2/4
f 345/2/4 346/2/4 350/2/4
f 350/2/4 347/2/4 351/2/4
f 351/2/4 347/2/4 352/2/4
f 347/3/4 334/3/4 353/3/4
f 352/2/4 347/2/4 353/2/4
f 348/4/4 349/4/4 354/4/4
f 349/3/4 350/3/4 355/3/4
f 354/4/4 349/4/4 355/4/4
f 350/3/4 351/3/4 355/3/4
f 355/3/4 351/3/4 356/3/4
f 351/2/4 352/2/4 357/2/4
f 356/3/4 351/3/4 357/3/4
f 357/2/4 352/2/4 358/2/4
f 358/2/4 352/2/4 359/2/4
f 352/3/4 353/3/4 360/3/4
f 359/2/4 352/2/4 360/2/4
f 355/4/4 356/4/4 361/4/4
f 356/3/4 357/3/4 362/3/4
f 361/4/4 356/4/4 362/4/4
f 357/3/4 358/3/4 362/3/4
f 362/3/4 358/3/4 363/3/4
f 360/3/4 353/3/4 364/3/4
f 353/3/4 334/3/4 364/3/4
f 359/3/4 360/3/4 364/3/4
f 334/4/4 329/4/4 365/4/4
f 364/3/4 334/3/4 365/3/4
f 363/3/4 358/3/4 366/3/4
f 366/3/4 358/3/4 367/3/4
f 359/3/4 364/3/4 368/3/4
f 364/4/4 365/4/4 369/4/4
f 368/3/4 364/3/4 369/3/4
f 365/4/4 329/4/4 370/4/4
f 369/4/4 365/4/4 370/4/4
f 367/3/4 358/3/4 372/3/4
f 358/4/4 359/4/4 373/4/4
f 372/3/4 358/3/4 373/3/4
f 359/3/4 368/3/4 374/3/4
f 373/4/4 359/4/4 374/4/4
f 368/4/4 369/4/4 375/4/4
f 374/3/4 368/3/4 375/3/4
f 375/4/4 369/4/4 376/4/4
f 373/4/4 374/4/4 377/4/4
f 372/4/4 373/4/4 377/4/4
f 374/4/4 375/4/4 377/4/4
f 371/4/4 372/4/4 377/4/4
f 377/4/4 375/4/4 378/4/4
f 379/3/4 380/3/4 381/3/4
f 381/3/4 380/3/4 382/3/4
f 379/3/4 381/3/4 384/3/4
f 384/3/4 381/3/4 385/3/4
f 382/3/4 383/3/4 387/3/4
f 387/3/4 383/3/4 388/3/4
f 385/3/4 386/3/4 391/3/4
f 391/3/4 386/3/4 392/3/4
f 388/3/4 389/3/4 393/3/4
f 393/3/4 389/3/4 394/3/4
f 390/3/4 391/3/4 397/3/4
f 397/3/4 391/3/4 398/3/4
f 396/3/4 397/3/4 400/3/4
f 400/3/4 397/3/4 401/3/4
f 399/3/4 400/3/4 402/3/4
f 402/3/4 400/3/4 403/3/4
f 403/3/4 404/3/4 405/3/4
f 405/3/4 404/3/4 406/3/4
f 406/3/4 407/3/4 408/3/4
f 408/3/4 407/3/4 409/3/4
f 394/3/4 395/3/4 412/3/4
f 412/3/4 395/3/4 413/3/4
f 409/3/4 410/3/4 415/3/4
f 415/3/4 410/3/4 416/3/4
f 411/3/4 412/3/4 418/3/4
f 418/3/4 412/3/4 419/3/4
f 414/3/4 415/3/4 420/3/4
f 417/3/4 418/3/4 421/3/4
f 421/3/4 418/3/4 422/3/4
f 414/3/4 420/3/4 423/3/4
f 420/3/4 421/3/4 423/3/4
f 423/3/4 421/3/4 424/3/4
f 428/4/5 426/4/5 425/4/5
f 429/4/5 426/4/5 428/4/5
f 431/3/5 428/3/5 427/3/5
f 431/3/5 430/3/5 429/3/5
f 431/3/5 429/3/5 428/3/5
f 432/3/5 430/3/5 431/3/5
f 438/4/5 434/4/5 433/4/5
f 439/4/5 434/4/5 438/4/5
f 440/4/5 436/4/5 435/4/5
f 441/4/5 436/4/5 440/4/5
f 443/3/5 438/3/5 437/3/5
f 444/3/5 438/3/5 443/3/5
f 445/3/5 442/3/5 441/3/5
f 446/3/5 442/3/5 445/3/5
f 452/4/5 448/4/5 447/4/5
f 453/4/5 448/4/5 452/4/5
f 454/4/5 450/4/5 449/4/5
f 455/4/5 450/4/5 454/4/5
f 457/3/5 452/3/5 451/3/5
f 458/3/5 452/3/5 457/3/5
f 459/3/5 456/3/5 455/3/5
f 460/3/5 456/3/5 459/3/5
f 465/4/5 462/4/5 461/4/5
f 466/4/5 462/4/5 465/4/5
f 467/4/5 464/4/5 463/4/5
f 468/4/5 464/4/5 467/4/5
f 473/3/5 470/3/5 469/3/5
f 474/3/5 470/3/5 473/3/5
f 475/3/5 472/3/5 471/3/5
f 476/3/5 472/3/5 475/3/5
f 481/4/5 478/4/5 477/4/5
f 482/4/5 478/4/5 481/4/5
f 483/4/5 478/4/5 482/4/5
f 484/4/5 480/4/5 479/4/5
f 485/4/5 480/4/5 484/4/5
f 486/4/5 480/4/5 485/4/5
f 487/3/5 483/3/5 482/3/5
f 488/3/5 483/3/5 487/3/5
f 489/3/5 485/3/5 484/3/5
f 490/3/5 485/3/5 489/3/5
f 493/1/5 492/1/5 491/1/5
f 494/1/5 492/1/5 493/1/5
f 499/1/5 496/1/5 495/1/5
f 500/1/5 496/1/5 499/1/5
f 501/1/5 498/1/5 497/1/5
f 502/1/5 498/1/5 501/1/5
f 507/3/5 504/3/5 503/3/5
f 508/3/5 504/3/5 507/3/5
f 509/3/5 506/3/5 505/3/5
f 510/3/5 506/3/5 509/3/5
f 515/3/5 512/3/5 511/3/5
f 516/3/5 512/3/5 515/3/5
f 517/3/5 514/3/5 513/3/5
f 518/3/5 514/3/5 517/3/5
f 521/3/5 520/3/5 519/3/5
f 522/3/5 520/3/5 521/3/5
f 523/3/6 524/3/6 527/3/6
f 525/3/6 526/3/6 527/3/6
f 524/3/6 525/3/6 527/3/6
f 527/3/6 526/3/6 528/3/6
f 529/3/6 530/3/6 533/3/6
f 533/3/6 530/3/6 534/3/6
f 531/3/6 532/3/6 535/3/6
f 535/3/6 532/3/6 536/3/6
f 537/3/6 538/3/6 545/3/6
f 545/3/6 538/3/6 546/3/6
f 539/3/6 540/3/6 547/3/6
f 547/3/6 540/3/6 548/3/6
f 541/3/6 542/3/6 549/3/6
f 549/3/6 542/3/6 550/3/6
f 543/3/6 544/3/6 551/3/6
f 551/3/6 544/3/6 552/3/6
f 553/3/6 554/3/6 557/3/6
f 557/3/6 554/3/6 558/3/6
f 555/3/6 556/3/6 559/3/6
f 559/3/6 556/3/6 560/3/6
f 561/1/6 562/1/6 565/1/6
f 565/1/6 562/1/6 566/1/6
f 563/1/6 564/1/6 567/1/6
f 567/1/6 564/1/6 568/1/6
f 569/1/6 570/1/6 571/1/6
f 571/1/6 570/1/6 572/1/6
f 573/4/6 574/4/6 578/4/6
f 578/4/6 574/4/6 579/4/6
f 575/4/6 576/4/6 580/4/6
f 580/4/6 576/4/6 581/4/6
f 577/3/6 578/3/6 583/3/6
f 583/3/6 578/3/6 584/3/6
f 581/3/6 582/3/6 585/3/6
f 585/3/6 582/3/6 586/3/6
f 587/4/6 588/4/6 592/4/6
f 592/4/6 588/4/6 593/4/6
f 589/4/6 590/4/6 594/4/6
f 594/4/6 590/4/6 595/4/6
f 591/3/6 592/3/6 597/3/6
f 597/3/6 592/3/6 598/3/6
f 595/3/6 596/3/6 599/3/6
f 599/3/6 596/3/6 600/3/6
f 601/4/6 602/4/6 604/4/6
f 604/4/6 602/4/6 605/4/6
f 603/3/6 604/3/6 607/3/6
f 607/3/6 604/3/6 608/3/6
f 605/3/6 606/3/6 609/3/6
f 609/3/6 606/3/6 610/3/6
f 611/3/6 612/3/6 613/3/6
f 613/3/6 612/3/6 614/3/6
