# MagicaVoxel @ Ephtracy

# group
o 

# material
mtllib Chip 4 6 4.mtl
usemtl palette

# normals
vn -1 0 0
vn 1 0 0
vn 0 0 1
vn 0 0 -1
vn 0 -1 0
vn 0 1 0

# texcoords
vt 0.970703 0.5
vt 0.974609 0.5
vt 0.982422 0.5

# verts
v -2.4 0 4.8
v -2.4 0 -2.5
v -2.4 3.8 4.8
v -2.4 3.8 3.1
v -2.4 3.8 -2.5
v -2.4 3.8 -2.9
v -2.4 4.3 -2.5
v -2.4 4.3 -2.9
v -2.4 4.8 3.1
v -2.4 4.8 -2.5
v -2.2 0.3 -2.5
v -2.2 0.3 -4.8
v -2.2 3.8 -2.5
v -2.2 3.8 -2.9
v -2.2 3.9 -2.9
v -2.2 3.9 -4.8
v -2.2 4 4.3
v -2.2 4 3.1
v -2.2 4.5 4.3
v -2.2 4.5 3.1
v -1.3 3.8 4.8
v -1.3 3.8 3.1
v -1.3 4 4.3
v -1.3 4 3.8
v -1.3 4.5 4.3
v -1.3 4.5 3.8
v -1.3 4.8 4.8
v -1.3 4.8 3.1
v 0.4 4.3 1.1
v 0.4 4.3 -2.3
v 0.4 4.3 -2.4
v 0.4 4.4 0
v 0.4 4.4 -0.2
v 0.4 4.4 -0.9
v 0.4 4.4 -1.1
v 0.4 4.4 -1.8
v 0.4 4.4 -2
v 0.4 4.6 0
v 0.4 4.6 -0.2
v 0.4 4.6 -0.9
v 0.4 4.6 -1.1
v 0.4 4.6 -1.8
v 0.4 4.6 -2
v 0.4 4.8 1.1
v 0.4 4.8 -2.4
v 1.5 4.1 3.8
v 1.5 4.1 3.1
v 1.5 4.5 3.8
v 1.5 4.5 3.1
v -1.7 4 3.8
v -1.7 4 3.1
v -1.7 4.5 3.8
v -1.7 4.5 3.1
v -0.4 4.3 1.1
v -0.4 4.3 -2.3
v -0.4 4.3 -2.5
v -0.4 4.4 0
v -0.4 4.4 -0.2
v -0.4 4.4 -0.9
v -0.4 4.4 -1.1
v -0.4 4.4 -1.8
v -0.4 4.4 -2
v -0.4 4.6 0
v -0.4 4.6 -0.2
v -0.4 4.6 -0.9
v -0.4 4.6 -1.1
v -0.4 4.6 -1.8
v -0.4 4.6 -2
v -0.4 4.8 1.1
v -0.4 4.8 -2.5
v 1.4 3.8 4.8
v 1.4 3.8 3.1
v 1.4 4.1 4.3
v 1.4 4.1 3.8
v 1.4 4.5 4.3
v 1.4 4.5 3.8
v 1.4 4.8 4.8
v 1.4 4.8 3.1
v 2 4.1 4.3
v 2 4.1 3.1
v 2 4.5 4.3
v 2 4.5 3.1
v 2.2 0.3 -2.5
v 2.2 0.3 -4.8
v 2.2 3.8 -2.5
v 2.2 3.8 -2.9
v 2.2 3.9 -2.9
v 2.2 3.9 -4.8
v 2.4 0 4.8
v 2.4 0 -2.5
v 2.4 3.8 4.8
v 2.4 3.8 3.1
v 2.4 3.8 -2.5
v 2.4 3.8 -2.9
v 2.4 4.3 -2.4
v 2.4 4.3 -2.9
v 2.4 4.8 3.1
v 2.4 4.8 -2.4
v -2.4 0 4.8
v -2.4 3.8 4.8
v -1.3 3.8 4.8
v -1.3 4.8 4.8
v 1.4 3.8 4.8
v 1.4 4.8 4.8
v 2.4 0 4.8
v 2.4 3.8 4.8
v -2.2 4 4.3
v -2.2 4.5 4.3
v -1.3 4 4.3
v -1.3 4.5 4.3
v 1.4 4.1 4.3
v 1.4 4.5 4.3
v 2 4.1 4.3
v 2 4.5 4.3
v -2.4 3.8 3.1
v -2.4 4.8 3.1
v -2.2 4 3.1
v -2.2 4.5 3.1
v -1.7 4 3.1
v -1.7 4.5 3.1
v -1.3 3.8 3.1
v -1.3 4.8 3.1
v 1.4 3.8 3.1
v 1.4 4.8 3.1
v 1.5 4.1 3.1
v 1.5 4.5 3.1
v 2 4.1 3.1
v 2 4.5 3.1
v 2.4 3.8 3.1
v 2.4 4.8 3.1
v -0.4 4.4 0
v -0.4 4.6 0
v 0.4 4.4 0
v 0.4 4.6 0
v -0.4 4.4 -0.9
v -0.4 4.6 -0.9
v 0.4 4.4 -0.9
v 0.4 4.6 -0.9
v -0.4 4.4 -1.8
v -0.4 4.6 -1.8
v 0.4 4.4 -1.8
v 0.4 4.6 -1.8
v -1.7 4 3.8
v -1.7 4.5 3.8
v -1.3 4 3.8
v -1.3 4.5 3.8
v 1.4 4.1 3.8
v 1.4 4.5 3.8
v 1.5 4.1 3.8
v 1.5 4.5 3.8
v -0.4 4.3 1.1
v -0.4 4.8 1.1
v 0.4 4.3 1.1
v 0.4 4.8 1.1
v -0.4 4.4 -0.2
v -0.4 4.6 -0.2
v 0.4 4.4 -0.2
v 0.4 4.6 -0.2
v -0.4 4.4 -1.1
v -0.4 4.6 -1.1
v 0.4 4.4 -1.1
v 0.4 4.6 -1.1
v -0.4 4.4 -2
v -0.4 4.6 -2
v 0.4 4.4 -2
v 0.4 4.6 -2
v 0.4 4.3 -2.4
v 0.4 4.8 -2.4
v 2.4 4.3 -2.4
v 2.4 4.8 -2.4
v -2.4 0 -2.5
v -2.4 3.8 -2.5
v -2.4 4.3 -2.5
v -2.4 4.8 -2.5
v -2.2 0.3 -2.5
v -2.2 3.8 -2.5
v -0.4 4.3 -2.5
v -0.4 4.8 -2.5
v 2.2 0.3 -2.5
v 2.2 3.8 -2.5
v 2.4 0 -2.5
v 2.4 3.8 -2.5
v -2.4 3.8 -2.9
v -2.4 4.3 -2.9
v -2.2 3.8 -2.9
v -2.2 3.9 -2.9
v 2.2 3.8 -2.9
v 2.2 3.9 -2.9
v 2.4 3.8 -2.9
v 2.4 4.3 -2.9
v -2.2 0.3 -4.8
v -2.2 3.9 -4.8
v 2.2 0.3 -4.8
v 2.2 3.9 -4.8
v -2.4 0 4.8
v 2.4 0 4.8
v -2.4 0 -2.5
v 2.4 0 -2.5
v -2.2 0.3 -2.5
v 2.2 0.3 -2.5
v -2.2 0.3 -4.8
v 2.2 0.3 -4.8
v -2.4 3.8 -2.5
v -2.2 3.8 -2.5
v 2.2 3.8 -2.5
v 2.4 3.8 -2.5
v -2.4 3.8 -2.9
v -2.2 3.8 -2.9
v 2.2 3.8 -2.9
v 2.4 3.8 -2.9
v -2.2 4 4.3
v -1.3 4 4.3
v -1.7 4 3.8
v -1.3 4 3.8
v -2.2 4 3.1
v -1.7 4 3.1
v 1.4 4.1 4.3
v 2 4.1 4.3
v 1.4 4.1 3.8
v 1.5 4.1 3.8
v 1.5 4.1 3.1
v 2 4.1 3.1
v -0.4 4.4 0
v 0.4 4.4 0
v -0.4 4.4 -0.2
v 0.4 4.4 -0.2
v -0.4 4.4 -0.9
v 0.4 4.4 -0.9
v -0.4 4.4 -1.1
v 0.4 4.4 -1.1
v -0.4 4.4 -1.8
v 0.4 4.4 -1.8
v -0.4 4.4 -2
v 0.4 4.4 -2
v -2.4 3.8 4.8
v -1.3 3.8 4.8
v 1.4 3.8 4.8
v 2.4 3.8 4.8
v -2.4 3.8 3.1
v -1.3 3.8 3.1
v 1.4 3.8 3.1
v 2.4 3.8 3.1
v -2.2 3.9 -2.9
v 2.2 3.9 -2.9
v -2.2 3.9 -4.8
v 2.2 3.9 -4.8
v -0.4 4.3 1.1
v 0.4 4.3 1.1
v -0.4 4.3 -2.3
v 0.4 4.3 -2.3
v 0.4 4.3 -2.4
v 2.4 4.3 -2.4
v -2.4 4.3 -2.5
v -0.4 4.3 -2.5
v -2.4 4.3 -2.9
v 2.4 4.3 -2.9
v -2.2 4.5 4.3
v -1.3 4.5 4.3
v 1.4 4.5 4.3
v 2 4.5 4.3
v -1.7 4.5 3.8
v -1.3 4.5 3.8
v 1.4 4.5 3.8
v 1.5 4.5 3.8
v -2.2 4.5 3.1
v -1.7 4.5 3.1
v 1.5 4.5 3.1
v 2 4.5 3.1
v -0.4 4.6 0
v 0.4 4.6 0
v -0.4 4.6 -0.2
v 0.4 4.6 -0.2
v -0.4 4.6 -0.9
v 0.4 4.6 -0.9
v -0.4 4.6 -1.1
v 0.4 4.6 -1.1
v -0.4 4.6 -1.8
v 0.4 4.6 -1.8
v -0.4 4.6 -2
v 0.4 4.6 -2
v -1.3 4.8 4.8
v 1.4 4.8 4.8
v -2.4 4.8 3.1
v -1.3 4.8 3.1
v 1.4 4.8 3.1
v 2.4 4.8 3.1
v -0.4 4.8 1.1
v 0.4 4.8 1.1
v 0.4 4.8 -2.4
v 2.4 4.8 -2.4
v -2.4 4.8 -2.5
v -0.4 4.8 -2.5

# faces
f 3/1/1 2/1/1 1/1/1
f 4/1/1 2/1/1 3/1/1
f 5/1/1 2/1/1 4/1/1
f 7/1/1 6/1/1 5/1/1
f 7/1/1 5/1/1 4/1/1
f 8/1/1 6/1/1 7/1/1
f 9/1/1 7/1/1 4/1/1
f 10/1/1 7/1/1 9/1/1
f 13/2/1 12/2/1 11/2/1
f 14/2/1 12/2/1 13/2/1
f 15/2/1 12/2/1 14/2/1
f 16/2/1 12/2/1 15/2/1
f 19/2/1 18/2/1 17/2/1
f 20/2/1 18/2/1 19/2/1
f 23/1/1 22/1/1 21/1/1
f 24/1/1 22/1/1 23/1/1
f 25/1/1 23/1/1 21/1/1
f 26/1/1 22/1/1 24/1/1
f 27/1/1 25/1/1 21/1/1
f 27/1/1 26/1/1 25/1/1
f 28/1/1 22/1/1 26/1/1
f 28/1/1 26/1/1 27/1/1
f 32/1/1 30/1/1 29/1/1
f 32/1/1 31/1/1 30/1/1
f 33/1/1 31/1/1 32/1/1
f 34/1/1 31/1/1 33/1/1
f 35/1/1 31/1/1 34/1/1
f 36/1/1 31/1/1 35/1/1
f 37/1/1 31/1/1 36/1/1
f 38/1/1 32/1/1 29/1/1
f 39/1/1 34/1/1 33/1/1
f 40/1/1 34/1/1 39/1/1
f 41/1/1 36/1/1 35/1/1
f 42/1/1 36/1/1 41/1/1
f 43/1/1 31/1/1 37/1/1
f 44/1/1 42/1/1 41/1/1
f 44/1/1 43/1/1 42/1/1
f 44/1/1 40/1/1 39/1/1
f 44/1/1 38/1/1 29/1/1
f 44/1/1 41/1/1 40/1/1
f 44/1/1 39/1/1 38/1/1
f 45/1/1 31/1/1 43/1/1
f 45/1/1 43/1/1 44/1/1
f 48/2/1 47/2/1 46/2/1
f 49/2/1 47/2/1 48/2/1
f 50/2/2 51/2/2 52/2/2
f 52/2/2 51/2/2 53/2/2
f 54/1/2 55/1/2 57/1/2
f 55/1/2 56/1/2 57/1/2
f 57/1/2 56/1/2 58/1/2
f 58/1/2 56/1/2 59/1/2
f 59/1/2 56/1/2 60/1/2
f 60/1/2 56/1/2 61/1/2
f 61/1/2 56/1/2 62/1/2
f 54/1/2 57/1/2 63/1/2
f 58/1/2 59/1/2 64/1/2
f 64/1/2 59/1/2 65/1/2
f 60/1/2 61/1/2 66/1/2
f 66/1/2 61/1/2 67/1/2
f 62/1/2 56/1/2 68/1/2
f 66/1/2 67/1/2 69/1/2
f 67/1/2 68/1/2 69/1/2
f 64/1/2 65/1/2 69/1/2
f 54/1/2 63/1/2 69/1/2
f 65/1/2 66/1/2 69/1/2
f 63/1/2 64/1/2 69/1/2
f 68/1/2 56/1/2 70/1/2
f 69/1/2 68/1/2 70/1/2
f 71/1/2 72/1/2 73/1/2
f 73/1/2 72/1/2 74/1/2
f 71/1/2 73/1/2 75/1/2
f 74/1/2 72/1/2 76/1/2
f 71/1/2 75/1/2 77/1/2
f 75/1/2 76/1/2 77/1/2
f 76/1/2 72/1/2 78/1/2
f 77/1/2 76/1/2 78/1/2
f 79/2/2 80/2/2 81/2/2
f 81/2/2 80/2/2 82/2/2
f 83/2/2 84/2/2 85/2/2
f 85/2/2 84/2/2 86/2/2
f 86/2/2 84/2/2 87/2/2
f 87/2/2 84/2/2 88/2/2
f 89/1/2 90/1/2 91/1/2
f 91/1/2 90/1/2 92/1/2
f 92/1/2 90/1/2 93/1/2
f 93/1/2 94/1/2 95/1/2
f 92/1/2 93/1/2 95/1/2
f 95/1/2 94/1/2 96/1/2
f 92/1/2 95/1/2 97/1/2
f 97/1/2 95/1/2 98/1/2
f 101/1/3 100/1/3 99/1/3
f 103/1/3 101/1/3 99/1/3
f 103/1/3 102/1/3 101/1/3
f 104/1/3 102/1/3 103/1/3
f 105/1/3 103/1/3 99/1/3
f 106/1/3 103/1/3 105/1/3
f 109/2/3 108/2/3 107/2/3
f 110/2/3 108/2/3 109/2/3
f 113/2/3 112/2/3 111/2/3
f 114/2/3 112/2/3 113/2/3
f 117/1/3 116/1/3 115/1/3
f 118/1/3 116/1/3 117/1/3
f 119/1/3 117/1/3 115/1/3
f 120/1/3 116/1/3 118/1/3
f 121/1/3 119/1/3 115/1/3
f 121/1/3 120/1/3 119/1/3
f 122/1/3 116/1/3 120/1/3
f 122/1/3 120/1/3 121/1/3
f 125/1/3 124/1/3 123/1/3
f 126/1/3 124/1/3 125/1/3
f 127/1/3 125/1/3 123/1/3
f 128/1/3 124/1/3 126/1/3
f 129/1/3 127/1/3 123/1/3
f 129/1/3 128/1/3 127/1/3
f 130/1/3 124/1/3 128/1/3
f 130/1/3 128/1/3 129/1/3
f 133/3/3 132/3/3 131/3/3
f 134/3/3 132/3/3 133/3/3
f 137/3/3 136/3/3 135/3/3
f 138/3/3 136/3/3 137/3/3
f 141/3/3 140/3/3 139/3/3
f 142/3/3 140/3/3 141/3/3
f 143/2/4 144/2/4 145/2/4
f 145/2/4 144/2/4 146/2/4
f 147/2/4 148/2/4 149/2/4
f 149/2/4 148/2/4 150/2/4
f 151/1/4 152/1/4 153/1/4
f 153/1/4 152/1/4 154/1/4
f 155/3/4 156/3/4 157/3/4
f 157/3/4 156/3/4 158/3/4
f 159/3/4 160/3/4 161/3/4
f 161/3/4 160/3/4 162/3/4
f 163/3/4 164/3/4 165/3/4
f 165/3/4 164/3/4 166/3/4
f 167/1/4 168/1/4 169/1/4
f 169/1/4 168/1/4 170/1/4
f 171/1/4 172/1/4 175/1/4
f 175/1/4 172/1/4 176/1/4
f 173/1/4 174/1/4 177/1/4
f 177/1/4 174/1/4 178/1/4
f 171/1/4 175/1/4 179/1/4
f 171/1/4 179/1/4 181/1/4
f 179/1/4 180/1/4 181/1/4
f 181/1/4 180/1/4 182/1/4
f 183/1/4 184/1/4 185/1/4
f 185/1/4 184/1/4 186/1/4
f 186/1/4 184/1/4 188/1/4
f 187/1/4 188/1/4 189/1/4
f 188/1/4 184/1/4 190/1/4
f 189/1/4 188/1/4 190/1/4
f 191/2/4 192/2/4 193/2/4
f 193/2/4 192/2/4 194/2/4
f 197/1/5 196/1/5 195/1/5
f 198/1/5 196/1/5 197/1/5
f 201/2/5 200/2/5 199/2/5
f 202/2/5 200/2/5 201/2/5
f 207/1/5 204/1/5 203/1/5
f 208/1/5 204/1/5 207/1/5
f 209/1/5 206/1/5 205/1/5
f 210/1/5 206/1/5 209/1/5
f 213/2/5 212/2/5 211/2/5
f 214/2/5 212/2/5 213/2/5
f 215/2/5 213/2/5 211/2/5
f 216/2/5 213/2/5 215/2/5
f 219/2/5 218/2/5 217/2/5
f 220/2/5 218/2/5 219/2/5
f 221/2/5 218/2/5 220/2/5
f 222/2/5 218/2/5 221/2/5
f 225/3/5 224/3/5 223/3/5
f 226/3/5 224/3/5 225/3/5
f 229/3/5 228/3/5 227/3/5
f 230/3/5 228/3/5 229/3/5
f 233/3/5 232/3/5 231/3/5
f 234/3/5 232/3/5 233/3/5
f 235/1/6 236/1/6 239/1/6
f 239/1/6 236/1/6 240/1/6
f 237/1/6 238/1/6 241/1/6
f 241/1/6 238/1/6 242/1/6
f 243/2/6 244/2/6 245/2/6
f 245/2/6 244/2/6 246/2/6
f 247/2/6 248/2/6 249/2/6
f 249/2/6 248/2/6 250/2/6
f 249/1/6 250/1/6 251/1/6
f 249/1/6 251/1/6 254/1/6
f 251/1/6 252/1/6 254/1/6
f 253/1/6 254/1/6 255/1/6
f 254/1/6 252/1/6 256/1/6
f 255/1/6 254/1/6 256/1/6
f 257/2/6 258/2/6 261/2/6
f 261/2/6 258/2/6 262/2/6
f 259/2/6 260/2/6 263/2/6
f 263/2/6 260/2/6 264/2/6
f 257/2/6 261/2/6 265/2/6
f 265/2/6 261/2/6 266/2/6
f 264/2/6 260/2/6 267/2/6
f 267/2/6 260/2/6 268/2/6
f 269/3/6 270/3/6 271/3/6
f 271/3/6 270/3/6 272/3/6
f 273/3/6 274/3/6 275/3/6
f 275/3/6 274/3/6 276/3/6
f 277/3/6 278/3/6 279/3/6
f 279/3/6 278/3/6 280/3/6
f 281/1/6 282/1/6 284/1/6
f 284/1/6 282/1/6 285/1/6
f 283/1/6 284/1/6 287/1/6
f 285/1/6 286/1/6 287/1/6
f 284/1/6 285/1/6 287/1/6
f 287/1/6 286/1/6 288/1/6
f 288/1/6 286/1/6 289/1/6
f 289/1/6 286/1/6 290/1/6
f 283/1/6 287/1/6 291/1/6
f 291/1/6 287/1/6 292/1/6
