# MagicaVoxel @ Ephtracy

# group
o 

# material
mtllib Chip 3 3 1.mtl
usemtl palette

# normals
vn -1 0 0
vn 1 0 0
vn 0 0 1
vn 0 0 -1
vn 0 -1 0
vn 0 1 0

# texcoords
vt 0.0292969 0.5
vt 0.970703 0.5
vt 0.974609 0.5
vt 0.986328 0.5

# verts
v -2.4 0 2
v -2.4 0 1.6
v -2.4 0 0.4
v -2.4 0 -0.4
v -2.4 0 -1.6
v -2.4 0 -2
v -2.4 0.4 2.4
v -2.4 0.4 2
v -2.4 0.4 1.6
v -2.4 0.4 0.4
v -2.4 0.4 -0.4
v -2.4 0.4 -1.6
v -2.4 0.4 -2
v -2.4 0.4 -2.4
v -2.4 1 2.4
v -2.4 1 -2.4
v -2 0 2.4
v -2 0 2
v -2 0 -2
v -2 0 -2.4
v -2 0.4 2.4
v -2 0.4 2
v -2 0.4 -2
v -2 0.4 -2.4
v -1.8 0.2 1.9
v -1.8 0.2 -1.8
v -1.8 0.4 1.9
v -1.8 0.4 -1.8
v -0.8 0 2.4
v -0.8 0 2
v -0.8 0 -2
v -0.8 0 -2.4
v -0.8 0.4 2.4
v -0.8 0.4 2
v -0.8 0.4 -2
v -0.8 0.4 -2.4
v 0.4 0 2.4
v 0.4 0 2
v 0.4 0 -2
v 0.4 0 -2.4
v 0.4 0.4 2.4
v 0.4 0.4 2
v 0.4 0.4 -2
v 0.4 0.4 -2.4
v 1.6 0 2.4
v 1.6 0 2
v 1.6 0 -2
v 1.6 0 -2.4
v 1.6 0.4 2.4
v 1.6 0.4 2
v 1.6 0.4 -2
v 1.6 0.4 -2.4
v 2 0 2
v 2 0 1.6
v 2 0 0.4
v 2 0 -0.4
v 2 0 -1.6
v 2 0 -2
v 2 0.4 2
v 2 0.4 1.6
v 2 0.4 0.4
v 2 0.4 -0.4
v 2 0.4 -1.6
v 2 0.4 -2
v -2 0 2
v -2 0 1.6
v -2 0 0.4
v -2 0 -0.4
v -2 0 -1.6
v -2 0 -2
v -2 0.4 2
v -2 0.4 1.6
v -2 0.4 0.4
v -2 0.4 -0.4
v -2 0.4 -1.6
v -2 0.4 -2
v -1.6 0 2.4
v -1.6 0 2
v -1.6 0 -2
v -1.6 0 -2.4
v -1.6 0.4 2.4
v -1.6 0.4 2
v -1.6 0.4 -2
v -1.6 0.4 -2.4
v -0.4 0 2.4
v -0.4 0 2
v -0.4 0 -2
v -0.4 0 -2.4
v -0.4 0.4 2.4
v -0.4 0.4 2
v -0.4 0.4 -2
v -0.4 0.4 -2.4
v 0.8 0 2.4
v 0.8 0 2
v 0.8 0 -2
v 0.8 0 -2.4
v 0.8 0.4 2.4
v 0.8 0.4 2
v 0.8 0.4 -2
v 0.8 0.4 -2.4
v 1.8 0.2 1.9
v 1.8 0.2 -1.8
v 1.8 0.4 1.9
v 1.8 0.4 -1.8
v 2 0 2.4
v 2 0 2
v 2 0 -2
v 2 0 -2.4
v 2 0.4 2.4
v 2 0.4 2
v 2 0.4 -2
v 2 0.4 -2.4
v 2.4 0 2
v 2.4 0 1.6
v 2.4 0 0.4
v 2.4 0 -0.4
v 2.4 0 -1.6
v 2.4 0 -2
v 2.4 0.4 2.4
v 2.4 0.4 2
v 2.4 0.4 1.6
v 2.4 0.4 0.4
v 2.4 0.4 -0.4
v 2.4 0.4 -1.6
v 2.4 0.4 -2
v 2.4 0.4 -2.4
v 2.4 1 2.4
v 2.4 1 -2.4
v -2.4 0.4 2.4
v -2.4 1 2.4
v -2 0 2.4
v -2 0.4 2.4
v -1.6 0 2.4
v -1.6 0.4 2.4
v -0.8 0 2.4
v -0.8 0.4 2.4
v -0.4 0 2.4
v -0.4 0.4 2.4
v 0.4 0 2.4
v 0.4 0.4 2.4
v 0.8 0 2.4
v 0.8 0.4 2.4
v 1.6 0 2.4
v 1.6 0.4 2.4
v 2 0 2.4
v 2 0.4 2.4
v 2.4 0.4 2.4
v 2.4 1 2.4
v -2.4 0 2
v -2.4 0.4 2
v -2 0 2
v -2 0.4 2
v 2 0 2
v 2 0.4 2
v 2.4 0 2
v 2.4 0.4 2
v -1.8 0.2 1.9
v -1.8 0.4 1.9
v 1.8 0.2 1.9
v 1.8 0.4 1.9
v -2.4 0 0.4
v -2.4 0.4 0.4
v -2 0 0.4
v -2 0.4 0.4
v 2 0 0.4
v 2 0.4 0.4
v 2.4 0 0.4
v 2.4 0.4 0.4
v -2.4 0 -1.6
v -2.4 0.4 -1.6
v -2 0 -1.6
v -2 0.4 -1.6
v 2 0 -1.6
v 2 0.4 -1.6
v 2.4 0 -1.6
v 2.4 0.4 -1.6
v -2 0 -2
v -2 0.4 -2
v -1.6 0 -2
v -1.6 0.4 -2
v -0.8 0 -2
v -0.8 0.4 -2
v -0.4 0 -2
v -0.4 0.4 -2
v 0.4 0 -2
v 0.4 0.4 -2
v 0.8 0 -2
v 0.8 0.4 -2
v 1.6 0 -2
v 1.6 0.4 -2
v 2 0 -2
v 2 0.4 -2
v -2 0 2
v -2 0.4 2
v -1.6 0 2
v -1.6 0.4 2
v -0.8 0 2
v -0.8 0.4 2
v -0.4 0 2
v -0.4 0.4 2
v 0.4 0 2
v 0.4 0.4 2
v 0.8 0 2
v 0.8 0.4 2
v 1.6 0 2
v 1.6 0.4 2
v 2 0 2
v 2 0.4 2
v -2.4 0 1.6
v -2.4 0.4 1.6
v -2 0 1.6
v -2 0.4 1.6
v 2 0 1.6
v 2 0.4 1.6
v 2.4 0 1.6
v 2.4 0.4 1.6
v -2.4 0 -0.4
v -2.4 0.4 -0.4
v -2 0 -0.4
v -2 0.4 -0.4
v 2 0 -0.4
v 2 0.4 -0.4
v 2.4 0 -0.4
v 2.4 0.4 -0.4
v -1.8 0.2 -1.8
v -1.8 0.4 -1.8
v 1.8 0.2 -1.8
v 1.8 0.4 -1.8
v -2.4 0 -2
v -2.4 0.4 -2
v -2 0 -2
v -2 0.4 -2
v 2 0 -2
v 2 0.4 -2
v 2.4 0 -2
v 2.4 0.4 -2
v -2.4 0.4 -2.4
v -2.4 1 -2.4
v -2 0 -2.4
v -2 0.4 -2.4
v -1.6 0 -2.4
v -1.6 0.4 -2.4
v -0.8 0 -2.4
v -0.8 0.4 -2.4
v -0.4 0 -2.4
v -0.4 0.4 -2.4
v 0.4 0 -2.4
v 0.4 0.4 -2.4
v 0.8 0 -2.4
v 0.8 0.4 -2.4
v 1.6 0 -2.4
v 1.6 0.4 -2.4
v 2 0 -2.4
v 2 0.4 -2.4
v 2.4 0.4 -2.4
v 2.4 1 -2.4
v -2 0 2.4
v -1.6 0 2.4
v -0.8 0 2.4
v -0.4 0 2.4
v 0.4 0 2.4
v 0.8 0 2.4
v 1.6 0 2.4
v 2 0 2.4
v -2.4 0 2
v -2 0 2
v -1.6 0 2
v -0.8 0 2
v -0.4 0 2
v 0.4 0 2
v 0.8 0 2
v 1.6 0 2
v 2 0 2
v 2.4 0 2
v -2.4 0 1.6
v -2 0 1.6
v 2 0 1.6
v 2.4 0 1.6
v -2.4 0 0.4
v -2 0 0.4
v 2 0 0.4
v 2.4 0 0.4
v -2.4 0 -0.4
v -2 0 -0.4
v 2 0 -0.4
v 2.4 0 -0.4
v -2.4 0 -1.6
v -2 0 -1.6
v 2 0 -1.6
v 2.4 0 -1.6
v -2.4 0 -2
v -2 0 -2
v -1.6 0 -2
v -0.8 0 -2
v -0.4 0 -2
v 0.4 0 -2
v 0.8 0 -2
v 1.6 0 -2
v 2 0 -2
v 2.4 0 -2
v -2 0 -2.4
v -1.6 0 -2.4
v -0.8 0 -2.4
v -0.4 0 -2.4
v 0.4 0 -2.4
v 0.8 0 -2.4
v 1.6 0 -2.4
v 2 0 -2.4
v -1.8 0.2 1.9
v 1.8 0.2 1.9
v -1.8 0.2 -1.8
v 1.8 0.2 -1.8
v -2.4 0.4 2.4
v -2 0.4 2.4
v -1.6 0.4 2.4
v -0.8 0.4 2.4
v -0.4 0.4 2.4
v 0.4 0.4 2.4
v 0.8 0.4 2.4
v 1.6 0.4 2.4
v 2 0.4 2.4
v 2.4 0.4 2.4
v -2.4 0.4 2
v -2 0.4 2
v -1.6 0.4 2
v -0.8 0.4 2
v -0.4 0.4 2
v 0.4 0.4 2
v 0.8 0.4 2
v 1.6 0.4 2
v 2 0.4 2
v 2.4 0.4 2
v -1.8 0.4 1.9
v 1.8 0.4 1.9
v -2.4 0.4 1.6
v -2 0.4 1.6
v 2 0.4 1.6
v 2.4 0.4 1.6
v -2.4 0.4 0.4
v -2 0.4 0.4
v 2 0.4 0.4
v 2.4 0.4 0.4
v -2.4 0.4 -0.4
v -2 0.4 -0.4
v 2 0.4 -0.4
v 2.4 0.4 -0.4
v -2.4 0.4 -1.6
v -2 0.4 -1.6
v 2 0.4 -1.6
v 2.4 0.4 -1.6
v -1.8 0.4 -1.8
v 1.8 0.4 -1.8
v -2.4 0.4 -2
v -2 0.4 -2
v -1.6 0.4 -2
v -0.8 0.4 -2
v -0.4 0.4 -2
v 0.4 0.4 -2
v 0.8 0.4 -2
v 1.6 0.4 -2
v 2 0.4 -2
v 2.4 0.4 -2
v -2.4 0.4 -2.4
v -2 0.4 -2.4
v -1.6 0.4 -2.4
v -0.8 0.4 -2.4
v -0.4 0.4 -2.4
v 0.4 0.4 -2.4
v 0.8 0.4 -2.4
v 1.6 0.4 -2.4
v 2 0.4 -2.4
v 2.4 0.4 -2.4
v -2.4 1 2.4
v 2.4 1 2.4
v 1.6 1 1.9
v 2 1 1.9
v -1.9 1 1.8
v -1.5 1 1.8
v 1.6 1 1.5
v 2 1 1.5
v -1.9 1 1.4
v -1.5 1 1.4
v 1.6 1 0.3
v 2 1 0.3
v -1.9 1 0.2
v -1.5 1 0.2
v 1.6 1 -0.1
v 2 1 -0.1
v -1.9 1 -0.2
v -1.5 1 -0.2
v -1.9 1 -1.6
v -1.5 1 -1.6
v 1.6 1 -1.6
v 2 1 -1.6
v -1.9 1 -2
v -1.5 1 -2
v 1.6 1 -2
v 2 1 -2
v -2.4 1 -2.4
v 2.4 1 -2.4

# faces
f 8/3/1 2/3/1 1/3/1
f 9/3/1 2/3/1 8/3/1
f 10/3/1 4/3/1 3/3/1
f 11/3/1 4/3/1 10/3/1
f 12/3/1 6/3/1 5/3/1
f 13/3/1 6/3/1 12/3/1
f 15/2/1 11/2/1 10/2/1
f 15/2/1 14/2/1 13/2/1
f 15/2/1 13/2/1 12/2/1
f 15/2/1 12/2/1 11/2/1
f 15/2/1 9/2/1 8/2/1
f 15/2/1 10/2/1 9/2/1
f 15/2/1 8/2/1 7/2/1
f 16/2/1 14/2/1 15/2/1
f 21/3/1 18/3/1 17/3/1
f 22/3/1 18/3/1 21/3/1
f 23/3/1 20/3/1 19/3/1
f 24/3/1 20/3/1 23/3/1
f 27/2/1 26/2/1 25/2/1
f 28/2/1 26/2/1 27/2/1
f 33/3/1 30/3/1 29/3/1
f 34/3/1 30/3/1 33/3/1
f 35/3/1 32/3/1 31/3/1
f 36/3/1 32/3/1 35/3/1
f 41/3/1 38/3/1 37/3/1
f 42/3/1 38/3/1 41/3/1
f 43/3/1 40/3/1 39/3/1
f 44/3/1 40/3/1 43/3/1
f 49/3/1 46/3/1 45/3/1
f 50/3/1 46/3/1 49/3/1
f 51/3/1 48/3/1 47/3/1
f 52/3/1 48/3/1 51/3/1
f 59/3/1 54/3/1 53/3/1
f 60/3/1 54/3/1 59/3/1
f 61/3/1 56/3/1 55/3/1
f 62/3/1 56/3/1 61/3/1
f 63/3/1 58/3/1 57/3/1
f 64/3/1 58/3/1 63/3/1
f 65/3/2 66/3/2 71/3/2
f 71/3/2 66/3/2 72/3/2
f 67/3/2 68/3/2 73/3/2
f 73/3/2 68/3/2 74/3/2
f 69/3/2 70/3/2 75/3/2
f 75/3/2 70/3/2 76/3/2
f 77/3/2 78/3/2 81/3/2
f 81/3/2 78/3/2 82/3/2
f 79/3/2 80/3/2 83/3/2
f 83/3/2 80/3/2 84/3/2
f 85/3/2 86/3/2 89/3/2
f 89/3/2 86/3/2 90/3/2
f 87/3/2 88/3/2 91/3/2
f 91/3/2 88/3/2 92/3/2
f 93/3/2 94/3/2 97/3/2
f 97/3/2 94/3/2 98/3/2
f 95/3/2 96/3/2 99/3/2
f 99/3/2 96/3/2 100/3/2
f 101/2/2 102/2/2 103/2/2
f 103/2/2 102/2/2 104/2/2
f 105/3/2 106/3/2 109/3/2
f 109/3/2 106/3/2 110/3/2
f 107/3/2 108/3/2 111/3/2
f 111/3/2 108/3/2 112/3/2
f 113/3/2 114/3/2 120/3/2
f 120/3/2 114/3/2 121/3/2
f 115/3/2 116/3/2 122/3/2
f 122/3/2 116/3/2 123/3/2
f 117/3/2 118/3/2 124/3/2
f 124/3/2 118/3/2 125/3/2
f 122/2/2 123/2/2 127/2/2
f 125/2/2 126/2/2 127/2/2
f 124/2/2 125/2/2 127/2/2
f 123/2/2 124/2/2 127/2/2
f 120/2/2 121/2/2 127/2/2
f 121/2/2 122/2/2 127/2/2
f 119/2/2 120/2/2 127/2/2
f 127/2/2 126/2/2 128/2/2
f 132/2/3 130/2/3 129/2/3
f 133/3/3 132/3/3 131/3/3
f 134/2/3 130/2/3 132/2/3
f 134/3/3 132/3/3 133/3/3
f 136/2/3 130/2/3 134/2/3
f 137/3/3 136/3/3 135/3/3
f 138/2/3 130/2/3 136/2/3
f 138/3/3 136/3/3 137/3/3
f 140/2/3 130/2/3 138/2/3
f 141/3/3 140/3/3 139/3/3
f 142/2/3 130/2/3 140/2/3
f 142/3/3 140/3/3 141/3/3
f 144/2/3 130/2/3 142/2/3
f 145/3/3 144/3/3 143/3/3
f 146/2/3 130/2/3 144/2/3
f 146/3/3 144/3/3 145/3/3
f 147/2/3 130/2/3 146/2/3
f 148/2/3 130/2/3 147/2/3
f 151/3/3 150/3/3 149/3/3
f 152/3/3 150/3/3 151/3/3
f 155/3/3 154/3/3 153/3/3
f 156/3/3 154/3/3 155/3/3
f 159/2/3 158/2/3 157/2/3
f 160/2/3 158/2/3 159/2/3
f 163/3/3 162/3/3 161/3/3
f 164/3/3 162/3/3 163/3/3
f 167/3/3 166/3/3 165/3/3
f 168/3/3 166/3/3 167/3/3
f 171/3/3 170/3/3 169/3/3
f 172/3/3 170/3/3 171/3/3
f 175/3/3 174/3/3 173/3/3
f 176/3/3 174/3/3 175/3/3
f 179/3/3 178/3/3 177/3/3
f 180/3/3 178/3/3 179/3/3
f 183/3/3 182/3/3 181/3/3
f 184/3/3 182/3/3 183/3/3
f 187/3/3 186/3/3 185/3/3
f 188/3/3 186/3/3 187/3/3
f 191/3/3 190/3/3 189/3/3
f 192/3/3 190/3/3 191/3/3
f 193/3/4 194/3/4 195/3/4
f 195/3/4 194/3/4 196/3/4
f 197/3/4 198/3/4 199/3/4
f 199/3/4 198/3/4 200/3/4
f 201/3/4 202/3/4 203/3/4
f 203/3/4 202/3/4 204/3/4
f 205/3/4 206/3/4 207/3/4
f 207/3/4 206/3/4 208/3/4
f 209/3/4 210/3/4 211/3/4
f 211/3/4 210/3/4 212/3/4
f 213/3/4 214/3/4 215/3/4
f 215/3/4 214/3/4 216/3/4
f 217/3/4 218/3/4 219/3/4
f 219/3/4 218/3/4 220/3/4
f 221/3/4 222/3/4 223/3/4
f 223/3/4 222/3/4 224/3/4
f 225/2/4 226/2/4 227/2/4
f 227/2/4 226/2/4 228/2/4
f 229/3/4 230/3/4 231/3/4
f 231/3/4 230/3/4 232/3/4
f 233/3/4 234/3/4 235/3/4
f 235/3/4 234/3/4 236/3/4
f 237/2/4 238/2/4 240/2/4
f 239/3/4 240/3/4 241/3/4
f 240/2/4 238/2/4 242/2/4
f 241/3/4 240/3/4 242/3/4
f 242/2/4 238/2/4 244/2/4
f 243/3/4 244/3/4 245/3/4
f 244/2/4 238/2/4 246/2/4
f 245/3/4 244/3/4 246/3/4
f 246/2/4 238/2/4 248/2/4
f 247/3/4 248/3/4 249/3/4
f 248/2/4 238/2/4 250/2/4
f 249/3/4 248/3/4 250/3/4
f 250/2/4 238/2/4 252/2/4
f 251/3/4 252/3/4 253/3/4
f 252/2/4 238/2/4 254/2/4
f 253/3/4 252/3/4 254/3/4
f 254/2/4 238/2/4 255/2/4
f 255/2/4 238/2/4 256/2/4
f 266/3/5 258/3/5 257/3/5
f 267/3/5 258/3/5 266/3/5
f 268/3/5 260/3/5 259/3/5
f 269/3/5 260/3/5 268/3/5
f 270/3/5 262/3/5 261/3/5
f 271/3/5 262/3/5 270/3/5
f 272/3/5 264/3/5 263/3/5
f 273/3/5 264/3/5 272/3/5
f 275/3/5 266/3/5 265/3/5
f 276/3/5 266/3/5 275/3/5
f 277/3/5 274/3/5 273/3/5
f 278/3/5 274/3/5 277/3/5
f 283/3/5 280/3/5 279/3/5
f 284/3/5 280/3/5 283/3/5
f 285/3/5 282/3/5 281/3/5
f 286/3/5 282/3/5 285/3/5
f 291/3/5 288/3/5 287/3/5
f 292/3/5 288/3/5 291/3/5
f 299/3/5 290/3/5 289/3/5
f 300/3/5 290/3/5 299/3/5
f 301/3/5 293/3/5 292/3/5
f 302/3/5 293/3/5 301/3/5
f 303/3/5 295/3/5 294/3/5
f 304/3/5 295/3/5 303/3/5
f 305/3/5 297/3/5 296/3/5
f 306/3/5 297/3/5 305/3/5
f 307/3/5 299/3/5 298/3/5
f 308/3/5 299/3/5 307/3/5
f 311/2/5 310/2/5 309/2/5
f 312/2/5 310/2/5 311/2/5
f 323/2/5 314/2/5 313/2/5
f 324/2/5 314/2/5 323/2/5
f 325/2/5 316/2/5 315/2/5
f 326/2/5 316/2/5 325/2/5
f 327/2/5 318/2/5 317/2/5
f 328/2/5 318/2/5 327/2/5
f 329/2/5 320/2/5 319/2/5
f 330/2/5 320/2/5 329/2/5
f 331/2/5 322/2/5 321/2/5
f 332/2/5 322/2/5 331/2/5
f 333/2/5 330/2/5 329/2/5
f 333/2/5 331/2/5 330/2/5
f 333/2/5 326/2/5 325/2/5
f 333/2/5 329/2/5 328/2/5
f 333/2/5 328/2/5 327/2/5
f 333/2/5 327/2/5 326/2/5
f 333/2/5 325/2/5 324/2/5
f 334/2/5 331/2/5 333/2/5
f 336/2/5 333/2/5 324/2/5
f 337/2/5 331/2/5 334/2/5
f 339/2/5 336/2/5 335/2/5
f 340/2/5 333/2/5 336/2/5
f 340/2/5 336/2/5 339/2/5
f 341/2/5 338/2/5 337/2/5
f 341/2/5 337/2/5 334/2/5
f 342/2/5 338/2/5 341/2/5
f 344/2/5 333/2/5 340/2/5
f 345/2/5 341/2/5 334/2/5
f 347/2/5 344/2/5 343/2/5
f 348/2/5 333/2/5 344/2/5
f 348/2/5 344/2/5 347/2/5
f 349/2/5 346/2/5 345/2/5
f 349/2/5 345/2/5 334/2/5
f 350/2/5 346/2/5 349/2/5
f 351/2/5 333/2/5 348/2/5
f 352/2/5 349/2/5 334/2/5
f 354/2/5 351/2/5 348/2/5
f 354/2/5 352/2/5 351/2/5
f 355/2/5 352/2/5 354/2/5
f 356/2/5 352/2/5 355/2/5
f 357/2/5 352/2/5 356/2/5
f 358/2/5 352/2/5 357/2/5
f 359/2/5 352/2/5 358/2/5
f 360/2/5 352/2/5 359/2/5
f 361/2/5 349/2/5 352/2/5
f 361/2/5 352/2/5 360/2/5
f 363/2/5 354/2/5 353/2/5
f 364/2/5 354/2/5 363/2/5
f 365/2/5 356/2/5 355/2/5
f 366/2/5 356/2/5 365/2/5
f 367/2/5 358/2/5 357/2/5
f 368/2/5 358/2/5 367/2/5
f 369/2/5 360/2/5 359/2/5
f 370/2/5 360/2/5 369/2/5
f 371/2/5 362/2/5 361/2/5
f 372/2/5 362/2/5 371/2/5
f 373/2/6 374/2/6 375/2/6
f 375/2/6 374/2/6 376/2/6
f 373/2/6 375/2/6 377/2/6
f 377/2/6 375/2/6 378/2/6
f 375/1/6 376/1/6 379/1/6
f 378/2/6 375/2/6 379/2/6
f 376/2/6 374/2/6 380/2/6
f 379/1/6 376/1/6 380/1/6
f 377/1/6 378/1/6 381/1/6
f 373/2/6 377/2/6 381/2/6
f 378/2/6 379/2/6 382/2/6
f 381/1/6 378/1/6 382/1/6
f 379/2/6 380/2/6 382/2/6
f 381/2/6 382/2/6 383/2/6
f 382/2/6 380/2/6 383/2/6
f 380/2/6 374/2/6 384/2/6
f 383/2/6 380/2/6 384/2/6
f 373/2/6 381/2/6 385/2/6
f 381/2/6 383/2/6 385/2/6
f 385/2/6 383/2/6 386/2/6
f 383/1/6 384/1/6 387/1/6
f 386/2/6 383/2/6 387/2/6
f 384/2/6 374/2/6 388/2/6
f 387/1/6 384/1/6 388/1/6
f 385/1/6 386/1/6 389/1/6
f 373/2/6 385/2/6 389/2/6
f 386/2/6 387/2/6 390/2/6
f 389/1/6 386/1/6 390/1/6
f 387/2/6 388/2/6 390/2/6
f 373/2/6 389/2/6 391/2/6
f 389/2/6 390/2/6 391/2/6
f 390/2/6 388/2/6 392/2/6
f 391/2/6 390/2/6 392/2/6
f 392/2/6 388/2/6 393/2/6
f 388/2/6 374/2/6 394/2/6
f 393/2/6 388/2/6 394/2/6
f 373/2/6 391/2/6 395/2/6
f 391/1/6 392/1/6 395/1/6
f 392/2/6 393/2/6 396/2/6
f 395/1/6 392/1/6 396/1/6
f 393/1/6 394/1/6 397/1/6
f 396/2/6 393/2/6 397/2/6
f 394/2/6 374/2/6 398/2/6
f 397/1/6 394/1/6 398/1/6
f 396/2/6 397/2/6 399/2/6
f 373/2/6 395/2/6 399/2/6
f 397/2/6 398/2/6 399/2/6
f 395/2/6 396/2/6 399/2/6
f 398/2/6 374/2/6 400/2/6
f 399/2/6 398/2/6 400/2/6
