# MagicaVoxel @ Ephtracy

# group
o 

# material
mtllib Cold 4 1 4.mtl
usemtl palette

# normals
vn -1 0 0
vn 1 0 0
vn 0 0 1
vn 0 0 -1
vn 0 -1 0
vn 0 1 0

# texcoords
vt 0.974609 0.5
vt 0.982422 0.5
vt 0.986328 0.5

# verts
v -3.2 0 0.3
v -3.2 0 -0.4
v -3.2 0.4 0.6
v -3.2 0.4 0.3
v -3.2 0.4 -0.4
v -3.2 0.4 -0.7
v -3.2 5.8 0.6
v -3.2 5.8 0.3
v -3.2 5.8 -0.4
v -3.2 5.8 -0.7
v -3.2 6 0.3
v -3.2 6 -0.4
v -2 6 0.1
v -2 6 -0.2
v -2 6.4 0.1
v -2 6.4 -0.2
v -0.9 0.4 0.6
v -0.9 0.4 0.3
v -0.9 0.4 -0.4
v -0.9 0.4 -0.7
v -0.9 5.3 0.3
v -0.9 5.3 0.2
v -0.9 5.3 -0.2
v -0.9 5.3 -0.4
v -0.9 5.8 0.6
v -0.9 5.8 0.3
v -0.9 5.8 0.2
v -0.9 5.8 -0.2
v -0.9 5.8 -0.4
v -0.9 5.8 -0.7
v -0.6 6 0.1
v -0.6 6 -0.2
v -0.6 6.4 0.1
v -0.6 6.4 -0.2
v 0.5 0.4 0.6
v 0.5 0.4 0.3
v 0.5 0.4 -0.4
v 0.5 0.4 -0.7
v 0.5 5.3 0.3
v 0.5 5.3 0.2
v 0.5 5.3 -0.3
v 0.5 5.3 -0.4
v 0.5 5.8 0.6
v 0.5 5.8 0.3
v 0.5 5.8 0.2
v 0.5 5.8 -0.3
v 0.5 5.8 -0.4
v 0.5 5.8 -0.7
v 0.8 6 0.1
v 0.8 6 -0.2
v 0.8 6.4 0.1
v 0.8 6.4 -0.2
v 2.1 0.4 0.6
v 2.1 0.4 0.3
v 2.1 0.4 -0.4
v 2.1 0.4 -0.7
v 2.1 5.3 0.3
v 2.1 5.3 0.2
v 2.1 5.3 -0.3
v 2.1 5.3 -0.4
v 2.1 5.8 0.6
v 2.1 5.8 0.3
v 2.1 5.8 0.2
v 2.1 5.8 -0.3
v 2.1 5.8 -0.4
v 2.1 5.8 -0.7
v 2.2 6 0.1
v 2.2 6 -0.2
v 2.2 6.4 0.1
v 2.2 6.4 -0.2
v -1.7 6 0.1
v -1.7 6 -0.2
v -1.7 6.4 0.1
v -1.7 6.4 -0.2
v -1.4 0.4 0.6
v -1.4 0.4 0.3
v -1.4 0.4 -0.4
v -1.4 0.4 -0.7
v -1.4 5.3 0.3
v -1.4 5.3 0.2
v -1.4 5.3 -0.2
v -1.4 5.3 -0.4
v -1.4 5.8 0.6
v -1.4 5.8 0.3
v -1.4 5.8 0.2
v -1.4 5.8 -0.2
v -1.4 5.8 -0.4
v -1.4 5.8 -0.7
v -0.3 6 0.1
v -0.3 6 -0.2
v -0.3 6.4 0.1
v -0.3 6.4 -0.2
v 0 0.4 0.6
v 0 0.4 0.3
v 0 0.4 -0.4
v 0 0.4 -0.7
v 0 5.3 0.3
v 0 5.3 0.2
v 0 5.3 -0.3
v 0 5.3 -0.4
v 0 5.8 0.6
v 0 5.8 0.3
v 0 5.8 0.2
v 0 5.8 -0.3
v 0 5.8 -0.4
v 0 5.8 -0.7
v 1.1 6 0.1
v 1.1 6 -0.2
v 1.1 6.4 0.1
v 1.1 6.4 -0.2
v 1.6 0.4 0.6
v 1.6 0.4 0.3
v 1.6 0.4 -0.4
v 1.6 0.4 -0.7
v 1.6 5.3 0.3
v 1.6 5.3 0.2
v 1.6 5.3 -0.3
v 1.6 5.3 -0.4
v 1.6 5.8 0.6
v 1.6 5.8 0.3
v 1.6 5.8 0.2
v 1.6 5.8 -0.3
v 1.6 5.8 -0.4
v 1.6 5.8 -0.7
v 2.5 6 0.1
v 2.5 6 -0.2
v 2.5 6.4 0.1
v 2.5 6.4 -0.2
v 3.2 0 0.3
v 3.2 0 -0.4
v 3.2 0.4 0.6
v 3.2 0.4 0.3
v 3.2 0.4 -0.4
v 3.2 0.4 -0.7
v 3.2 5.8 0.6
v 3.2 5.8 0.3
v 3.2 5.8 -0.4
v 3.2 5.8 -0.7
v 3.2 6 0.3
v 3.2 6 -0.4
v -3.2 0.4 0.6
v -3.2 5.8 0.6
v -1.4 0.4 0.6
v -1.4 5.8 0.6
v -0.9 0.4 0.6
v -0.9 5.8 0.6
v 0 0.4 0.6
v 0 5.8 0.6
v 0.5 0.4 0.6
v 0.5 5.8 0.6
v 1.6 0.4 0.6
v 1.6 5.8 0.6
v 2.1 0.4 0.6
v 2.1 5.8 0.6
v 3.2 0.4 0.6
v 3.2 5.8 0.6
v -3.2 0 0.3
v -3.2 0.4 0.3
v -3.2 5.8 0.3
v -3.2 6 0.3
v -1.4 0.4 0.3
v -1.4 5.3 0.3
v -1.4 5.8 0.3
v -0.9 0.4 0.3
v -0.9 5.3 0.3
v -0.9 5.8 0.3
v 0 0.4 0.3
v 0 5.3 0.3
v 0 5.8 0.3
v 0.5 0.4 0.3
v 0.5 5.3 0.3
v 0.5 5.8 0.3
v 1.6 0.4 0.3
v 1.6 5.3 0.3
v 1.6 5.8 0.3
v 2.1 0.4 0.3
v 2.1 5.3 0.3
v 2.1 5.8 0.3
v 3.2 0 0.3
v 3.2 0.4 0.3
v 3.2 5.8 0.3
v 3.2 6 0.3
v -1.4 5.3 0.2
v -1.4 5.8 0.2
v -0.9 5.3 0.2
v -0.9 5.8 0.2
v 0 5.3 0.2
v 0 5.8 0.2
v 0.5 5.3 0.2
v 0.5 5.8 0.2
v 1.6 5.3 0.2
v 1.6 5.8 0.2
v 2.1 5.3 0.2
v 2.1 5.8 0.2
v -2 6 0.1
v -2 6.4 0.1
v -1.7 6 0.1
v -1.7 6.4 0.1
v -0.6 6 0.1
v -0.6 6.4 0.1
v -0.3 6 0.1
v -0.3 6.4 0.1
v 0.8 6 0.1
v 0.8 6.4 0.1
v 1.1 6 0.1
v 1.1 6.4 0.1
v 2.2 6 0.1
v 2.2 6.4 0.1
v 2.5 6 0.1
v 2.5 6.4 0.1
v -2 6 -0.2
v -2 6.4 -0.2
v -1.7 6 -0.2
v -1.7 6.4 -0.2
v -1.4 5.3 -0.2
v -1.4 5.8 -0.2
v -0.9 5.3 -0.2
v -0.9 5.8 -0.2
v -0.6 6 -0.2
v -0.6 6.4 -0.2
v -0.3 6 -0.2
v -0.3 6.4 -0.2
v 0.8 6 -0.2
v 0.8 6.4 -0.2
v 1.1 6 -0.2
v 1.1 6.4 -0.2
v 2.2 6 -0.2
v 2.2 6.4 -0.2
v 2.5 6 -0.2
v 2.5 6.4 -0.2
v 0 5.3 -0.3
v 0 5.8 -0.3
v 0.5 5.3 -0.3
v 0.5 5.8 -0.3
v 1.6 5.3 -0.3
v 1.6 5.8 -0.3
v 2.1 5.3 -0.3
v 2.1 5.8 -0.3
v -3.2 0 -0.4
v -3.2 0.4 -0.4
v -3.2 5.8 -0.4
v -3.2 6 -0.4
v -1.4 0.4 -0.4
v -1.4 5.3 -0.4
v -1.4 5.8 -0.4
v -0.9 0.4 -0.4
v -0.9 5.3 -0.4
v -0.9 5.8 -0.4
v 0 0.4 -0.4
v 0 5.3 -0.4
v 0 5.8 -0.4
v 0.5 0.4 -0.4
v 0.5 5.3 -0.4
v 0.5 5.8 -0.4
v 1.6 0.4 -0.4
v 1.6 5.3 -0.4
v 1.6 5.8 -0.4
v 2.1 0.4 -0.4
v 2.1 5.3 -0.4
v 2.1 5.8 -0.4
v 3.2 0 -0.4
v 3.2 0.4 -0.4
v 3.2 5.8 -0.4
v 3.2 6 -0.4
v -3.2 0.4 -0.7
v -3.2 5.8 -0.7
v -1.4 0.4 -0.7
v -1.4 5.8 -0.7
v -0.9 0.4 -0.7
v -0.9 5.8 -0.7
v 0 0.4 -0.7
v 0 5.8 -0.7
v 0.5 0.4 -0.7
v 0.5 5.8 -0.7
v 1.6 0.4 -0.7
v 1.6 5.8 -0.7
v 2.1 0.4 -0.7
v 2.1 5.8 -0.7
v 3.2 0.4 -0.7
v 3.2 5.8 -0.7
v -3.2 0 0.3
v 3.2 0 0.3
v -2 0 0.1
v -1.7 0 0.1
v -0.6 0 0.1
v -0.3 0 0.1
v 0.8 0 0.1
v 1.1 0 0.1
v 2.2 0 0.1
v 2.5 0 0.1
v -2 0 -0.2
v -1.7 0 -0.2
v -0.6 0 -0.2
v -0.3 0 -0.2
v 0.8 0 -0.2
v 1.1 0 -0.2
v 2.2 0 -0.2
v 2.5 0 -0.2
v -3.2 0 -0.4
v 3.2 0 -0.4
v -3.2 0.4 0.6
v -1.4 0.4 0.6
v -0.9 0.4 0.6
v 0 0.4 0.6
v 0.5 0.4 0.6
v 1.6 0.4 0.6
v 2.1 0.4 0.6
v 3.2 0.4 0.6
v -3.2 0.4 0.3
v -1.4 0.4 0.3
v -0.9 0.4 0.3
v 0 0.4 0.3
v 0.5 0.4 0.3
v 1.6 0.4 0.3
v 2.1 0.4 0.3
v 3.2 0.4 0.3
v -3.2 0.4 -0.4
v -1.4 0.4 -0.4
v -0.9 0.4 -0.4
v 0 0.4 -0.4
v 0.5 0.4 -0.4
v 1.6 0.4 -0.4
v 2.1 0.4 -0.4
v 3.2 0.4 -0.4
v -3.2 0.4 -0.7
v -1.4 0.4 -0.7
v -0.9 0.4 -0.7
v 0 0.4 -0.7
v 0.5 0.4 -0.7
v 1.6 0.4 -0.7
v 2.1 0.4 -0.7
v 3.2 0.4 -0.7
v -1.4 5.8 0.3
v -0.9 5.8 0.3
v 0 5.8 0.3
v 0.5 5.8 0.3
v 1.6 5.8 0.3
v 2.1 5.8 0.3
v -1.4 5.8 0.2
v -0.9 5.8 0.2
v 0 5.8 0.2
v 0.5 5.8 0.2
v 1.6 5.8 0.2
v 2.1 5.8 0.2
v -1.4 5.8 -0.2
v -0.9 5.8 -0.2
v 0 5.8 -0.3
v 0.5 5.8 -0.3
v 1.6 5.8 -0.3
v 2.1 5.8 -0.3
v -1.4 5.8 -0.4
v -0.9 5.8 -0.4
v 0 5.8 -0.4
v 0.5 5.8 -0.4
v 1.6 5.8 -0.4
v 2.1 5.8 -0.4
v -1.4 5.3 0.3
v -0.9 5.3 0.3
v 0 5.3 0.3
v 0.5 5.3 0.3
v 1.6 5.3 0.3
v 2.1 5.3 0.3
v -1.4 5.3 0.2
v -0.9 5.3 0.2
v 0 5.3 0.2
v 0.5 5.3 0.2
v 1.6 5.3 0.2
v 2.1 5.3 0.2
v -1.4 5.3 -0.2
v -0.9 5.3 -0.2
v 0 5.3 -0.3
v 0.5 5.3 -0.3
v 1.6 5.3 -0.3
v 2.1 5.3 -0.3
v -1.4 5.3 -0.4
v -0.9 5.3 -0.4
v 0 5.3 -0.4
v 0.5 5.3 -0.4
v 1.6 5.3 -0.4
v 2.1 5.3 -0.4
v -3.2 5.8 0.6
v -1.4 5.8 0.6
v -0.9 5.8 0.6
v 0 5.8 0.6
v 0.5 5.8 0.6
v 1.6 5.8 0.6
v 2.1 5.8 0.6
v 3.2 5.8 0.6
v -3.2 5.8 0.3
v -1.4 5.8 0.3
v -0.9 5.8 0.3
v 0 5.8 0.3
v 0.5 5.8 0.3
v 1.6 5.8 0.3
v 2.1 5.8 0.3
v 3.2 5.8 0.3
v -3.2 5.8 -0.4
v -1.4 5.8 -0.4
v -0.9 5.8 -0.4
v 0 5.8 -0.4
v 0.5 5.8 -0.4
v 1.6 5.8 -0.4
v 2.1 5.8 -0.4
v 3.2 5.8 -0.4
v -3.2 5.8 -0.7
v -1.4 5.8 -0.7
v -0.9 5.8 -0.7
v 0 5.8 -0.7
v 0.5 5.8 -0.7
v 1.6 5.8 -0.7
v 2.1 5.8 -0.7
v 3.2 5.8 -0.7
v -3.2 6 0.3
v 3.2 6 0.3
v -2 6 0.1
v -1.7 6 0.1
v -0.6 6 0.1
v -0.3 6 0.1
v 0.8 6 0.1
v 1.1 6 0.1
v 2.2 6 0.1
v 2.5 6 0.1
v -2 6 -0.2
v -1.7 6 -0.2
v -0.6 6 -0.2
v -0.3 6 -0.2
v 0.8 6 -0.2
v 1.1 6 -0.2
v 2.2 6 -0.2
v 2.5 6 -0.2
v -3.2 6 -0.4
v 3.2 6 -0.4
v -2 6.4 0.1
v -1.7 6.4 0.1
v -0.6 6.4 0.1
v -0.3 6.4 0.1
v 0.8 6.4 0.1
v 1.1 6.4 0.1
v 2.2 6.4 0.1
v 2.5 6.4 0.1
v -2 6.4 -0.2
v -1.7 6.4 -0.2
v -0.6 6.4 -0.2
v -0.3 6.4 -0.2
v 0.8 6.4 -0.2
v 1.1 6.4 -0.2
v 2.2 6.4 -0.2
v 2.5 6.4 -0.2

# faces
f 4/3/1 2/3/1 1/3/1
f 5/3/1 2/3/1 4/3/1
f 7/1/1 4/1/1 3/1/1
f 8/3/1 5/3/1 4/3/1
f 8/1/1 4/1/1 7/1/1
f 9/1/1 6/1/1 5/1/1
f 9/3/1 5/3/1 8/3/1
f 10/1/1 6/1/1 9/1/1
f 11/3/1 9/3/1 8/3/1
f 12/3/1 9/3/1 11/3/1
f 15/2/1 14/2/1 13/2/1
f 16/2/1 14/2/1 15/2/1
f 21/1/1 18/1/1 17/1/1
f 24/1/1 20/1/1 19/1/1
f 25/1/1 21/1/1 17/1/1
f 26/3/1 22/3/1 21/3/1
f 26/1/1 21/1/1 25/1/1
f 27/3/1 22/3/1 26/3/1
f 28/3/1 24/3/1 23/3/1
f 29/1/1 20/1/1 24/1/1
f 29/3/1 24/3/1 28/3/1
f 30/1/1 20/1/1 29/1/1
f 33/2/1 32/2/1 31/2/1
f 34/2/1 32/2/1 33/2/1
f 39/1/1 36/1/1 35/1/1
f 42/1/1 38/1/1 37/1/1
f 43/1/1 39/1/1 35/1/1
f 44/3/1 40/3/1 39/3/1
f 44/1/1 39/1/1 43/1/1
f 45/3/1 40/3/1 44/3/1
f 46/3/1 42/3/1 41/3/1
f 47/1/1 38/1/1 42/1/1
f 47/3/1 42/3/1 46/3/1
f 48/1/1 38/1/1 47/1/1
f 51/2/1 50/2/1 49/2/1
f 52/2/1 50/2/1 51/2/1
f 57/1/1 54/1/1 53/1/1
f 60/1/1 56/1/1 55/1/1
f 61/1/1 57/1/1 53/1/1
f 62/3/1 58/3/1 57/3/1
f 62/1/1 57/1/1 61/1/1
f 63/3/1 58/3/1 62/3/1
f 64/3/1 60/3/1 59/3/1
f 65/1/1 56/1/1 60/1/1
f 65/3/1 60/3/1 64/3/1
f 66/1/1 56/1/1 65/1/1
f 69/2/1 68/2/1 67/2/1
f 70/2/1 68/2/1 69/2/1
f 71/2/2 72/2/2 73/2/2
f 73/2/2 72/2/2 74/2/2
f 75/1/2 76/1/2 79/1/2
f 77/1/2 78/1/2 82/1/2
f 75/1/2 79/1/2 83/1/2
f 79/3/2 80/3/2 84/3/2
f 83/1/2 79/1/2 84/1/2
f 84/3/2 80/3/2 85/3/2
f 81/3/2 82/3/2 86/3/2
f 82/1/2 78/1/2 87/1/2
f 86/3/2 82/3/2 87/3/2
f 87/1/2 78/1/2 88/1/2
f 89/2/2 90/2/2 91/2/2
f 91/2/2 90/2/2 92/2/2
f 93/1/2 94/1/2 97/1/2
f 95/1/2 96/1/2 100/1/2
f 93/1/2 97/1/2 101/1/2
f 97/3/2 98/3/2 102/3/2
f 101/1/2 97/1/2 102/1/2
f 102/3/2 98/3/2 103/3/2
f 99/3/2 100/3/2 104/3/2
f 100/1/2 96/1/2 105/1/2
f 104/3/2 100/3/2 105/3/2
f 105/1/2 96/1/2 106/1/2
f 107/2/2 108/2/2 109/2/2
f 109/2/2 108/2/2 110/2/2
f 111/1/2 112/1/2 115/1/2
f 113/1/2 114/1/2 118/1/2
f 111/1/2 115/1/2 119/1/2
f 115/3/2 116/3/2 120/3/2
f 119/1/2 115/1/2 120/1/2
f 120/3/2 116/3/2 121/3/2
f 117/3/2 118/3/2 122/3/2
f 118/1/2 114/1/2 123/1/2
f 122/3/2 118/3/2 123/3/2
f 123/1/2 114/1/2 124/1/2
f 125/2/2 126/2/2 127/2/2
f 127/2/2 126/2/2 128/2/2
f 129/3/2 130/3/2 132/3/2
f 132/3/2 130/3/2 133/3/2
f 131/1/2 132/1/2 135/1/2
f 132/3/2 133/3/2 136/3/2
f 135/1/2 132/1/2 136/1/2
f 133/1/2 134/1/2 137/1/2
f 136/3/2 133/3/2 137/3/2
f 137/1/2 134/1/2 138/1/2
f 136/3/2 137/3/2 139/3/2
f 139/3/2 137/3/2 140/3/2
f 143/1/3 142/1/3 141/1/3
f 144/1/3 142/1/3 143/1/3
f 147/1/3 146/1/3 145/1/3
f 148/1/3 146/1/3 147/1/3
f 151/1/3 150/1/3 149/1/3
f 152/1/3 150/1/3 151/1/3
f 155/1/3 154/1/3 153/1/3
f 156/1/3 154/1/3 155/1/3
f 161/3/3 158/3/3 157/3/3
f 163/3/3 160/3/3 159/3/3
f 164/3/3 162/3/3 161/3/3
f 164/3/3 161/3/3 157/3/3
f 165/3/3 162/3/3 164/3/3
f 166/3/3 160/3/3 163/3/3
f 167/3/3 164/3/3 157/3/3
f 169/3/3 160/3/3 166/3/3
f 170/3/3 168/3/3 167/3/3
f 170/3/3 167/3/3 157/3/3
f 171/3/3 168/3/3 170/3/3
f 172/3/3 160/3/3 169/3/3
f 173/3/3 170/3/3 157/3/3
f 175/3/3 160/3/3 172/3/3
f 176/3/3 174/3/3 173/3/3
f 176/3/3 173/3/3 157/3/3
f 177/3/3 174/3/3 176/3/3
f 178/3/3 160/3/3 175/3/3
f 179/3/3 176/3/3 157/3/3
f 180/3/3 176/3/3 179/3/3
f 181/3/3 160/3/3 178/3/3
f 182/3/3 160/3/3 181/3/3
f 185/3/3 184/3/3 183/3/3
f 186/3/3 184/3/3 185/3/3
f 189/3/3 188/3/3 187/3/3
f 190/3/3 188/3/3 189/3/3
f 193/3/3 192/3/3 191/3/3
f 194/3/3 192/3/3 193/3/3
f 197/2/3 196/2/3 195/2/3
f 198/2/3 196/2/3 197/2/3
f 201/2/3 200/2/3 199/2/3
f 202/2/3 200/2/3 201/2/3
f 205/2/3 204/2/3 203/2/3
f 206/2/3 204/2/3 205/2/3
f 209/2/3 208/2/3 207/2/3
f 210/2/3 208/2/3 209/2/3
f 211/2/4 212/2/4 213/2/4
f 213/2/4 212/2/4 214/2/4
f 215/3/4 216/3/4 217/3/4
f 217/3/4 216/3/4 218/3/4
f 219/2/4 220/2/4 221/2/4
f 221/2/4 220/2/4 222/2/4
f 223/2/4 224/2/4 225/2/4
f 225/2/4 224/2/4 226/2/4
f 227/2/4 228/2/4 229/2/4
f 229/2/4 228/2/4 230/2/4
f 231/3/4 232/3/4 233/3/4
f 233/3/4 232/3/4 234/3/4
f 235/3/4 236/3/4 237/3/4
f 237/3/4 236/3/4 238/3/4
f 239/3/4 240/3/4 243/3/4
f 241/3/4 242/3/4 245/3/4
f 243/3/4 244/3/4 246/3/4
f 239/3/4 243/3/4 246/3/4
f 246/3/4 244/3/4 247/3/4
f 245/3/4 242/3/4 248/3/4
f 239/3/4 246/3/4 249/3/4
f 248/3/4 242/3/4 251/3/4
f 249/3/4 250/3/4 252/3/4
f 239/3/4 249/3/4 252/3/4
f 252/3/4 250/3/4 253/3/4
f 251/3/4 242/3/4 254/3/4
f 239/3/4 252/3/4 255/3/4
f 254/3/4 242/3/4 257/3/4
f 255/3/4 256/3/4 258/3/4
f 239/3/4 255/3/4 258/3/4
f 258/3/4 256/3/4 259/3/4
f 257/3/4 242/3/4 260/3/4
f 239/3/4 258/3/4 261/3/4
f 261/3/4 258/3/4 262/3/4
f 260/3/4 242/3/4 263/3/4
f 263/3/4 242/3/4 264/3/4
f 265/1/4 266/1/4 267/1/4
f 267/1/4 266/1/4 268/1/4
f 269/1/4 270/1/4 271/1/4
f 271/1/4 270/1/4 272/1/4
f 273/1/4 274/1/4 275/1/4
f 275/1/4 274/1/4 276/1/4
f 277/1/4 278/1/4 279/1/4
f 279/1/4 278/1/4 280/1/4
f 283/3/5 282/3/5 281/3/5
f 284/3/5 282/3/5 283/3/5
f 285/3/5 282/3/5 284/3/5
f 286/3/5 282/3/5 285/3/5
f 287/3/5 282/3/5 286/3/5
f 288/3/5 282/3/5 287/3/5
f 289/3/5 282/3/5 288/3/5
f 290/3/5 282/3/5 289/3/5
f 291/3/5 283/3/5 281/3/5
f 291/2/5 284/2/5 283/2/5
f 292/3/5 285/3/5 284/3/5
f 292/2/5 284/2/5 291/2/5
f 293/2/5 286/2/5 285/2/5
f 293/3/5 285/3/5 292/3/5
f 294/3/5 287/3/5 286/3/5
f 294/2/5 286/2/5 293/2/5
f 295/2/5 288/2/5 287/2/5
f 295/3/5 287/3/5 294/3/5
f 296/3/5 289/3/5 288/3/5
f 296/2/5 288/2/5 295/2/5
f 297/2/5 290/2/5 289/2/5
f 297/3/5 289/3/5 296/3/5
f 298/3/5 282/3/5 290/3/5
f 298/2/5 290/2/5 297/2/5
f 299/3/5 297/3/5 296/3/5
f 299/3/5 296/3/5 295/3/5
f 299/3/5 298/3/5 297/3/5
f 299/3/5 295/3/5 294/3/5
f 299/3/5 294/3/5 293/3/5
f 299/3/5 293/3/5 292/3/5
f 299/3/5 292/3/5 291/3/5
f 299/3/5 291/3/5 281/3/5
f 300/3/5 282/3/5 298/3/5
f 300/3/5 298/3/5 299/3/5
f 309/1/5 302/1/5 301/1/5
f 310/1/5 302/1/5 309/1/5
f 311/1/5 304/1/5 303/1/5
f 312/1/5 304/1/5 311/1/5
f 313/1/5 306/1/5 305/1/5
f 314/1/5 306/1/5 313/1/5
f 315/1/5 308/1/5 307/1/5
f 316/1/5 308/1/5 315/1/5
f 325/1/5 318/1/5 317/1/5
f 326/1/5 318/1/5 325/1/5
f 327/1/5 320/1/5 319/1/5
f 328/1/5 320/1/5 327/1/5
f 329/1/5 322/1/5 321/1/5
f 330/1/5 322/1/5 329/1/5
f 331/1/5 324/1/5 323/1/5
f 332/1/5 324/1/5 331/1/5
f 339/3/5 334/3/5 333/3/5
f 340/3/5 334/3/5 339/3/5
f 341/3/5 336/3/5 335/3/5
f 342/3/5 336/3/5 341/3/5
f 343/3/5 338/3/5 337/3/5
f 344/3/5 338/3/5 343/3/5
f 351/3/5 346/3/5 345/3/5
f 352/3/5 346/3/5 351/3/5
f 353/3/5 348/3/5 347/3/5
f 354/3/5 348/3/5 353/3/5
f 355/3/5 350/3/5 349/3/5
f 356/3/5 350/3/5 355/3/5
f 357/3/6 358/3/6 363/3/6
f 363/3/6 358/3/6 364/3/6
f 359/3/6 360/3/6 365/3/6
f 365/3/6 360/3/6 366/3/6
f 361/3/6 362/3/6 367/3/6
f 367/3/6 362/3/6 368/3/6
f 369/3/6 370/3/6 375/3/6
f 375/3/6 370/3/6 376/3/6
f 371/3/6 372/3/6 377/3/6
f 377/3/6 372/3/6 378/3/6
f 373/3/6 374/3/6 379/3/6
f 379/3/6 374/3/6 380/3/6
f 381/1/6 382/1/6 389/1/6
f 389/1/6 382/1/6 390/1/6
f 383/1/6 384/1/6 391/1/6
f 391/1/6 384/1/6 392/1/6
f 385/1/6 386/1/6 393/1/6
f 393/1/6 386/1/6 394/1/6
f 387/1/6 388/1/6 395/1/6
f 395/1/6 388/1/6 396/1/6
f 397/1/6 398/1/6 405/1/6
f 405/1/6 398/1/6 406/1/6
f 399/1/6 400/1/6 407/1/6
f 407/1/6 400/1/6 408/1/6
f 401/1/6 402/1/6 409/1/6
f 409/1/6 402/1/6 410/1/6
f 403/1/6 404/1/6 411/1/6
f 411/1/6 404/1/6 412/1/6
f 413/3/6 414/3/6 415/3/6
f 415/3/6 414/3/6 416/3/6
f 416/3/6 414/3/6 417/3/6
f 417/3/6 414/3/6 418/3/6
f 418/3/6 414/3/6 419/3/6
f 419/3/6 414/3/6 420/3/6
f 420/3/6 414/3/6 421/3/6
f 421/3/6 414/3/6 422/3/6
f 413/3/6 415/3/6 423/3/6
f 416/3/6 417/3/6 424/3/6
f 424/3/6 417/3/6 425/3/6
f 418/3/6 419/3/6 426/3/6
f 426/3/6 419/3/6 427/3/6
f 420/3/6 421/3/6 428/3/6
f 428/3/6 421/3/6 429/3/6
f 422/3/6 414/3/6 430/3/6
f 428/3/6 429/3/6 431/3/6
f 429/3/6 430/3/6 431/3/6
f 426/3/6 427/3/6 431/3/6
f 413/3/6 423/3/6 431/3/6
f 427/3/6 428/3/6 431/3/6
f 424/3/6 425/3/6 431/3/6
f 425/3/6 426/3/6 431/3/6
f 423/3/6 424/3/6 431/3/6
f 430/3/6 414/3/6 432/3/6
f 431/3/6 430/3/6 432/3/6
f 433/2/6 434/2/6 441/2/6
f 441/2/6 434/2/6 442/2/6
f 435/2/6 436/2/6 443/2/6
f 443/2/6 436/2/6 444/2/6
f 437/2/6 438/2/6 445/2/6
f 445/2/6 438/2/6 446/2/6
f 439/2/6 440/2/6 447/2/6
f 447/2/6 440/2/6 448/2/6
