# MagicaVoxel @ Ephtracy

# group
o 

# material
mtllib TwoMicro 4 2 1.mtl
usemtl palette

# normals
vn -1 0 0
vn 1 0 0
vn 0 0 1
vn 0 0 -1
vn 0 -1 0
vn 0 1 0

# texcoords
vt 0.970703 0.5
vt 0.974609 0.5
vt 0.982422 0.5

# verts
v -2.9 0 0.7
v -2.9 0 0.4
v -2.9 0 0.1
v -2.9 0 -0.1
v -2.9 0 -0.4
v -2.9 0 -0.7
v -2.9 0.8 0.7
v -2.9 0.8 0.4
v -2.9 0.8 0.1
v -2.9 0.8 -0.1
v -2.9 0.8 -0.4
v -2.9 0.8 -0.7
v -2.7 0.8 0.7
v -2.7 0.8 0.4
v -2.7 0.8 0.1
v -2.7 0.8 -0.1
v -2.7 0.8 -0.4
v -2.7 0.8 -0.7
v -2.7 1 0.7
v -2.7 1 0.4
v -2.7 1 0.1
v -2.7 1 -0.1
v -2.7 1 -0.4
v -2.7 1 -0.7
v -2 0.1 1.6
v -2 0.1 -1.6
v -2 0.8 0.7
v -2 0.8 0.4
v -2 0.8 0.1
v -2 0.8 0
v -2 0.8 -0.1
v -2 0.8 -0.4
v -2 0.8 -0.7
v -2 0.9 1.6
v -2 0.9 0.7
v -2 0.9 0.4
v -2 0.9 0.1
v -2 0.9 -0.1
v -2 0.9 -0.4
v -2 0.9 -0.7
v -2 0.9 -1.6
v -1.9 0.8 0.1
v -1.9 0.8 0
v -1.9 0.9 0.1
v -1.9 0.9 0
v 1.6 0.9 0.7
v 1.6 0.9 0.4
v 1.6 0.9 0.1
v 1.6 0.9 -0.1
v 1.6 0.9 -0.4
v 1.6 0.9 -0.7
v 1.6 1 0.7
v 1.6 1 0.4
v 1.6 1 0.1
v 1.6 1 -0.1
v 1.6 1 -0.4
v 1.6 1 -0.7
v 2.5 0 0.7
v 2.5 0 0.4
v 2.5 0 0.1
v 2.5 0 -0.1
v 2.5 0 -0.4
v 2.5 0 -0.7
v 2.5 0.8 0.7
v 2.5 0.8 0.4
v 2.5 0.8 0.1
v 2.5 0.8 -0.1
v 2.5 0.8 -0.4
v 2.5 0.8 -0.7
v -2.5 0 0.7
v -2.5 0 0.4
v -2.5 0 0.1
v -2.5 0 -0.1
v -2.5 0 -0.4
v -2.5 0 -0.7
v -2.5 0.8 0.7
v -2.5 0.8 0.4
v -2.5 0.8 0.1
v -2.5 0.8 -0.1
v -2.5 0.8 -0.4
v -2.5 0.8 -0.7
v -2.3 0.8 0.1
v -2.3 0.8 0
v -2.3 0.9 0.1
v -2.3 0.9 0
v -1.6 0.9 0.7
v -1.6 0.9 0.4
v -1.6 0.9 0.1
v -1.6 0.9 -0.1
v -1.6 0.9 -0.4
v -1.6 0.9 -0.7
v -1.6 1 0.7
v -1.6 1 0.4
v -1.6 1 0.1
v -1.6 1 -0.1
v -1.6 1 -0.4
v -1.6 1 -0.7
v 1.9 0.1 1.6
v 1.9 0.1 -1.6
v 1.9 0.8 0.7
v 1.9 0.8 0.4
v 1.9 0.8 0.1
v 1.9 0.8 -0.1
v 1.9 0.8 -0.4
v 1.9 0.8 -0.7
v 1.9 0.9 1.6
v 1.9 0.9 0.7
v 1.9 0.9 0.4
v 1.9 0.9 0.1
v 1.9 0.9 -0.1
v 1.9 0.9 -0.4
v 1.9 0.9 -0.7
v 1.9 0.9 -1.6
v 2.7 0.8 0.7
v 2.7 0.8 0.4
v 2.7 0.8 0.1
v 2.7 0.8 -0.1
v 2.7 0.8 -0.4
v 2.7 0.8 -0.7
v 2.7 1 0.7
v 2.7 1 0.4
v 2.7 1 0.1
v 2.7 1 -0.1
v 2.7 1 -0.4
v 2.7 1 -0.7
v 2.9 0 0.7
v 2.9 0 0.4
v 2.9 0 0.1
v 2.9 0 -0.1
v 2.9 0 -0.4
v 2.9 0 -0.7
v 2.9 0.8 0.7
v 2.9 0.8 0.4
v 2.9 0.8 0.1
v 2.9 0.8 -0.1
v 2.9 0.8 -0.4
v 2.9 0.8 -0.7
v -2 0.1 1.6
v -2 0.9 1.6
v -1.1 0.4 1.6
v -1.1 0.7 1.6
v -0.8 0.4 1.6
v -0.8 0.7 1.6
v 1 0.4 1.6
v 1 0.7 1.6
v 1.3 0.4 1.6
v 1.3 0.7 1.6
v 1.9 0.1 1.6
v 1.9 0.9 1.6
v -2.9 0 0.7
v -2.9 0.8 0.7
v -2.7 0.8 0.7
v -2.7 1 0.7
v -2.5 0 0.7
v -2.5 0.8 0.7
v -2 0.8 0.7
v -2 0.9 0.7
v -1.6 0.9 0.7
v -1.6 1 0.7
v 1.6 0.9 0.7
v 1.6 1 0.7
v 1.9 0.8 0.7
v 1.9 0.9 0.7
v 2.5 0 0.7
v 2.5 0.8 0.7
v 2.7 0.8 0.7
v 2.7 1 0.7
v 2.9 0 0.7
v 2.9 0.8 0.7
v -2.9 0 0.1
v -2.9 0.8 0.1
v -2.7 0.8 0.1
v -2.7 1 0.1
v -2.5 0 0.1
v -2.5 0.8 0.1
v -2.3 0.8 0.1
v -2.3 0.9 0.1
v -2 0.9 0.1
v -1.6 0.9 0.1
v -1.6 1 0.1
v 1.6 0.9 0.1
v 1.6 1 0.1
v 1.9 0.8 0.1
v 1.9 0.9 0.1
v 2.5 0 0.1
v 2.5 0.8 0.1
v 2.7 0.8 0.1
v 2.7 1 0.1
v 2.9 0 0.1
v 2.9 0.8 0.1
v -2.3 0.8 0
v -2.3 0.9 0
v -2 0.8 0
v -1.9 0.8 0
v -1.9 0.9 0
v -2.9 0 -0.4
v -2.9 0.8 -0.4
v -2.7 0.8 -0.4
v -2.7 1 -0.4
v -2.5 0 -0.4
v -2.5 0.8 -0.4
v -2 0.8 -0.4
v -2 0.9 -0.4
v -1.6 0.9 -0.4
v -1.6 1 -0.4
v 1.6 0.9 -0.4
v 1.6 1 -0.4
v 1.9 0.8 -0.4
v 1.9 0.9 -0.4
v 2.5 0 -0.4
v 2.5 0.8 -0.4
v 2.7 0.8 -0.4
v 2.7 1 -0.4
v 2.9 0 -0.4
v 2.9 0.8 -0.4
v -2.9 0 0.4
v -2.9 0.8 0.4
v -2.7 0.8 0.4
v -2.7 1 0.4
v -2.5 0 0.4
v -2.5 0.8 0.4
v -2 0.8 0.4
v -2 0.9 0.4
v -1.6 0.9 0.4
v -1.6 1 0.4
v 1.6 0.9 0.4
v 1.6 1 0.4
v 1.9 0.8 0.4
v 1.9 0.9 0.4
v 2.5 0 0.4
v 2.5 0.8 0.4
v 2.7 0.8 0.4
v 2.7 1 0.4
v 2.9 0 0.4
v 2.9 0.8 0.4
v -2 0.8 0.1
v -2 0.9 0.1
v -1.9 0.8 0.1
v -1.9 0.9 0.1
v -2.9 0 -0.1
v -2.9 0.8 -0.1
v -2.7 0.8 -0.1
v -2.7 1 -0.1
v -2.5 0 -0.1
v -2.5 0.8 -0.1
v -2 0.8 -0.1
v -2 0.9 -0.1
v -1.6 0.9 -0.1
v -1.6 1 -0.1
v 1.6 0.9 -0.1
v 1.6 1 -0.1
v 1.9 0.8 -0.1
v 1.9 0.9 -0.1
v 2.5 0 -0.1
v 2.5 0.8 -0.1
v 2.7 0.8 -0.1
v 2.7 1 -0.1
v 2.9 0 -0.1
v 2.9 0.8 -0.1
v -2.9 0 -0.7
v -2.9 0.8 -0.7
v -2.7 0.8 -0.7
v -2.7 1 -0.7
v -2.5 0 -0.7
v -2.5 0.8 -0.7
v -2 0.8 -0.7
v -2 0.9 -0.7
v -1.6 0.9 -0.7
v -1.6 1 -0.7
v 1.6 0.9 -0.7
v 1.6 1 -0.7
v 1.9 0.8 -0.7
v 1.9 0.9 -0.7
v 2.5 0 -0.7
v 2.5 0.8 -0.7
v 2.7 0.8 -0.7
v 2.7 1 -0.7
v 2.9 0 -0.7
v 2.9 0.8 -0.7
v -2 0.1 -1.6
v -2 0.9 -1.6
v -1.2 0.4 -1.6
v -1.2 0.9 -1.6
v -0.9 0.4 -1.6
v -0.9 0.9 -1.6
v 0.9 0.4 -1.6
v 0.9 0.9 -1.6
v 1.2 0.4 -1.6
v 1.2 0.9 -1.6
v 1.9 0.1 -1.6
v 1.9 0.9 -1.6
v -2.9 0 0.7
v -2.5 0 0.7
v 2.5 0 0.7
v 2.9 0 0.7
v -2.9 0 0.4
v -2.5 0 0.4
v 2.5 0 0.4
v 2.9 0 0.4
v -2.9 0 0.1
v -2.5 0 0.1
v 2.5 0 0.1
v 2.9 0 0.1
v -2.9 0 -0.1
v -2.5 0 -0.1
v 2.5 0 -0.1
v 2.9 0 -0.1
v -2.9 0 -0.4
v -2.5 0 -0.4
v 2.5 0 -0.4
v 2.9 0 -0.4
v -2.9 0 -0.7
v -2.5 0 -0.7
v 2.5 0 -0.7
v 2.9 0 -0.7
v -2 0.1 1.6
v 1.9 0.1 1.6
v -2 0.1 -1.6
v 1.9 0.1 -1.6
v -2.5 0.8 0.7
v -2 0.8 0.7
v 1.9 0.8 0.7
v 2.5 0.8 0.7
v -2.5 0.8 0.4
v -2 0.8 0.4
v 1.9 0.8 0.4
v 2.5 0.8 0.4
v -2.5 0.8 0.1
v -2.3 0.8 0.1
v 1.9 0.8 0.1
v 2.5 0.8 0.1
v -2.3 0.8 0
v -2 0.8 0
v -2.5 0.8 -0.1
v -2 0.8 -0.1
v 1.9 0.8 -0.1
v 2.5 0.8 -0.1
v -2.5 0.8 -0.4
v -2 0.8 -0.4
v 1.9 0.8 -0.4
v 2.5 0.8 -0.4
v -2.5 0.8 -0.7
v -2 0.8 -0.7
v 1.9 0.8 -0.7
v 2.5 0.8 -0.7
v -2.3 0.9 0.1
v -2 0.9 0.1
v -1.9 0.9 0.1
v -2.3 0.9 0
v -1.9 0.9 0
v -2.9 0.8 0.7
v -2.7 0.8 0.7
v 2.7 0.8 0.7
v 2.9 0.8 0.7
v -2.9 0.8 0.4
v -2.7 0.8 0.4
v 2.7 0.8 0.4
v 2.9 0.8 0.4
v -2.9 0.8 0.1
v -2.7 0.8 0.1
v -2 0.8 0.1
v -1.9 0.8 0.1
v 2.7 0.8 0.1
v 2.9 0.8 0.1
v -2 0.8 0
v -1.9 0.8 0
v -2.9 0.8 -0.1
v -2.7 0.8 -0.1
v 2.7 0.8 -0.1
v 2.9 0.8 -0.1
v -2.9 0.8 -0.4
v -2.7 0.8 -0.4
v 2.7 0.8 -0.4
v 2.9 0.8 -0.4
v -2.9 0.8 -0.7
v -2.7 0.8 -0.7
v 2.7 0.8 -0.7
v 2.9 0.8 -0.7
v -2 0.9 1.6
v 1.9 0.9 1.6
v -2 0.9 0.7
v -1.6 0.9 0.7
v 1.6 0.9 0.7
v 1.9 0.9 0.7
v -2 0.9 0.4
v -1.6 0.9 0.4
v 1.6 0.9 0.4
v 1.9 0.9 0.4
v -2 0.9 0.1
v -1.6 0.9 0.1
v 1.6 0.9 0.1
v 1.9 0.9 0.1
v -2 0.9 -0.1
v -1.6 0.9 -0.1
v 1.6 0.9 -0.1
v 1.9 0.9 -0.1
v -2 0.9 -0.4
v -1.6 0.9 -0.4
v 1.6 0.9 -0.4
v 1.9 0.9 -0.4
v -2 0.9 -0.7
v -1.6 0.9 -0.7
v 1.6 0.9 -0.7
v 1.9 0.9 -0.7
v -1.2 0.9 -1.4
v -0.9 0.9 -1.4
v 0.9 0.9 -1.4
v 1.2 0.9 -1.4
v -2 0.9 -1.6
v -1.2 0.9 -1.6
v -0.9 0.9 -1.6
v 0.9 0.9 -1.6
v 1.2 0.9 -1.6
v 1.9 0.9 -1.6
v -2.7 1 0.7
v -1.6 1 0.7
v 1.6 1 0.7
v 2.7 1 0.7
v -2.7 1 0.4
v -1.6 1 0.4
v 1.6 1 0.4
v 2.7 1 0.4
v -2.7 1 0.1
v -1.6 1 0.1
v 1.6 1 0.1
v 2.7 1 0.1
v -2.7 1 -0.1
v -1.6 1 -0.1
v 1.6 1 -0.1
v 2.7 1 -0.1
v -2.7 1 -0.4
v -1.6 1 -0.4
v 1.6 1 -0.4
v 2.7 1 -0.4
v -2.7 1 -0.7
v -1.6 1 -0.7
v 1.6 1 -0.7
v 2.7 1 -0.7

# faces
f 7/2/1 2/2/1 1/2/1
f 8/2/1 2/2/1 7/2/1
f 9/2/1 4/2/1 3/2/1
f 10/2/1 4/2/1 9/2/1
f 11/2/1 6/2/1 5/2/1
f 12/2/1 6/2/1 11/2/1
f 19/2/1 14/2/1 13/2/1
f 20/2/1 14/2/1 19/2/1
f 21/2/1 16/2/1 15/2/1
f 22/2/1 16/2/1 21/2/1
f 23/2/1 18/2/1 17/2/1
f 24/2/1 18/2/1 23/2/1
f 27/1/1 26/1/1 25/1/1
f 28/1/1 26/1/1 27/1/1
f 29/1/1 26/1/1 28/1/1
f 30/1/1 26/1/1 29/1/1
f 31/1/1 26/1/1 30/1/1
f 32/1/1 26/1/1 31/1/1
f 33/1/1 26/1/1 32/1/1
f 34/1/1 27/1/1 25/1/1
f 35/1/1 27/1/1 34/1/1
f 36/1/1 29/1/1 28/1/1
f 37/1/1 29/1/1 36/1/1
f 38/1/1 32/1/1 31/1/1
f 39/1/1 32/1/1 38/1/1
f 40/1/1 26/1/1 33/1/1
f 41/1/1 26/1/1 40/1/1
f 44/2/1 43/2/1 42/2/1
f 45/2/1 43/2/1 44/2/1
f 52/2/1 47/2/1 46/2/1
f 53/2/1 47/2/1 52/2/1
f 54/2/1 49/2/1 48/2/1
f 55/2/1 49/2/1 54/2/1
f 56/2/1 51/2/1 50/2/1
f 57/2/1 51/2/1 56/2/1
f 64/2/1 59/2/1 58/2/1
f 65/2/1 59/2/1 64/2/1
f 66/2/1 61/2/1 60/2/1
f 67/2/1 61/2/1 66/2/1
f 68/2/1 63/2/1 62/2/1
f 69/2/1 63/2/1 68/2/1
f 70/2/2 71/2/2 76/2/2
f 76/2/2 71/2/2 77/2/2
f 72/2/2 73/2/2 78/2/2
f 78/2/2 73/2/2 79/2/2
f 74/2/2 75/2/2 80/2/2
f 80/2/2 75/2/2 81/2/2
f 82/2/2 83/2/2 84/2/2
f 84/2/2 83/2/2 85/2/2
f 86/2/2 87/2/2 92/2/2
f 92/2/2 87/2/2 93/2/2
f 88/2/2 89/2/2 94/2/2
f 94/2/2 89/2/2 95/2/2
f 90/2/2 91/2/2 96/2/2
f 96/2/2 91/2/2 97/2/2
f 98/1/2 99/1/2 100/1/2
f 100/1/2 99/1/2 101/1/2
f 101/1/2 99/1/2 102/1/2
f 102/1/2 99/1/2 103/1/2
f 103/1/2 99/1/2 104/1/2
f 104/1/2 99/1/2 105/1/2
f 98/1/2 100/1/2 106/1/2
f 106/1/2 100/1/2 107/1/2
f 101/1/2 102/1/2 108/1/2
f 108/1/2 102/1/2 109/1/2
f 103/1/2 104/1/2 110/1/2
f 110/1/2 104/1/2 111/1/2
f 105/1/2 99/1/2 112/1/2
f 112/1/2 99/1/2 113/1/2
f 114/2/2 115/2/2 120/2/2
f 120/2/2 115/2/2 121/2/2
f 116/2/2 117/2/2 122/2/2
f 122/2/2 117/2/2 123/2/2
f 118/2/2 119/2/2 124/2/2
f 124/2/2 119/2/2 125/2/2
f 126/2/2 127/2/2 132/2/2
f 132/2/2 127/2/2 133/2/2
f 128/2/2 129/2/2 134/2/2
f 134/2/2 129/2/2 135/2/2
f 130/2/2 131/2/2 136/2/2
f 136/2/2 131/2/2 137/2/2
f 140/1/3 139/1/3 138/1/3
f 141/1/3 139/1/3 140/1/3
f 142/1/3 140/1/3 138/1/3
f 142/3/3 141/3/3 140/3/3
f 143/1/3 139/1/3 141/1/3
f 143/3/3 141/3/3 142/3/3
f 144/1/3 142/1/3 138/1/3
f 144/1/3 143/1/3 142/1/3
f 145/1/3 139/1/3 143/1/3
f 145/1/3 143/1/3 144/1/3
f 146/1/3 144/1/3 138/1/3
f 146/3/3 145/3/3 144/3/3
f 147/1/3 139/1/3 145/1/3
f 147/3/3 145/3/3 146/3/3
f 148/1/3 146/1/3 138/1/3
f 148/1/3 147/1/3 146/1/3
f 149/1/3 139/1/3 147/1/3
f 149/1/3 147/1/3 148/1/3
f 152/2/3 151/2/3 150/2/3
f 154/2/3 152/2/3 150/2/3
f 154/2/3 153/2/3 152/2/3
f 155/2/3 153/2/3 154/2/3
f 156/2/3 153/2/3 155/2/3
f 157/2/3 153/2/3 156/2/3
f 158/2/3 153/2/3 157/2/3
f 159/2/3 153/2/3 158/2/3
f 163/2/3 161/2/3 160/2/3
f 165/2/3 163/2/3 162/2/3
f 166/2/3 163/2/3 165/2/3
f 166/2/3 165/2/3 164/2/3
f 167/2/3 161/2/3 163/2/3
f 167/2/3 163/2/3 166/2/3
f 168/2/3 166/2/3 164/2/3
f 169/2/3 166/2/3 168/2/3
f 172/2/3 171/2/3 170/2/3
f 174/2/3 172/2/3 170/2/3
f 174/2/3 173/2/3 172/2/3
f 175/2/3 173/2/3 174/2/3
f 176/2/3 173/2/3 175/2/3
f 177/2/3 173/2/3 176/2/3
f 178/2/3 173/2/3 177/2/3
f 179/2/3 173/2/3 178/2/3
f 180/2/3 173/2/3 179/2/3
f 184/2/3 182/2/3 181/2/3
f 186/2/3 184/2/3 183/2/3
f 187/2/3 184/2/3 186/2/3
f 187/2/3 186/2/3 185/2/3
f 188/2/3 182/2/3 184/2/3
f 188/2/3 184/2/3 187/2/3
f 189/2/3 187/2/3 185/2/3
f 190/2/3 187/2/3 189/2/3
f 193/2/3 192/2/3 191/2/3
f 194/2/3 192/2/3 193/2/3
f 195/2/3 192/2/3 194/2/3
f 198/2/3 197/2/3 196/2/3
f 200/2/3 198/2/3 196/2/3
f 200/2/3 199/2/3 198/2/3
f 201/2/3 199/2/3 200/2/3
f 202/2/3 199/2/3 201/2/3
f 203/2/3 199/2/3 202/2/3
f 204/2/3 199/2/3 203/2/3
f 205/2/3 199/2/3 204/2/3
f 209/2/3 207/2/3 206/2/3
f 211/2/3 209/2/3 208/2/3
f 212/2/3 209/2/3 211/2/3
f 212/2/3 211/2/3 210/2/3
f 213/2/3 207/2/3 209/2/3
f 213/2/3 209/2/3 212/2/3
f 214/2/3 212/2/3 210/2/3
f 215/2/3 212/2/3 214/2/3
f 216/2/4 217/2/4 218/2/4
f 216/2/4 218/2/4 220/2/4
f 218/2/4 219/2/4 220/2/4
f 220/2/4 219/2/4 221/2/4
f 221/2/4 219/2/4 222/2/4
f 222/2/4 219/2/4 223/2/4
f 223/2/4 219/2/4 224/2/4
f 224/2/4 219/2/4 225/2/4
f 226/2/4 227/2/4 229/2/4
f 228/2/4 229/2/4 231/2/4
f 231/2/4 229/2/4 232/2/4
f 230/2/4 231/2/4 232/2/4
f 229/2/4 227/2/4 233/2/4
f 232/2/4 229/2/4 233/2/4
f 230/2/4 232/2/4 234/2/4
f 234/2/4 232/2/4 235/2/4
f 236/1/4 237/1/4 238/1/4
f 238/1/4 237/1/4 239/1/4
f 240/2/4 241/2/4 242/2/4
f 240/2/4 242/2/4 244/2/4
f 242/2/4 243/2/4 244/2/4
f 244/2/4 243/2/4 245/2/4
f 245/2/4 243/2/4 246/2/4
f 246/2/4 243/2/4 247/2/4
f 247/2/4 243/2/4 248/2/4
f 248/2/4 243/2/4 249/2/4
f 250/2/4 251/2/4 253/2/4
f 252/2/4 253/2/4 255/2/4
f 255/2/4 253/2/4 256/2/4
f 254/2/4 255/2/4 256/2/4
f 253/2/4 251/2/4 257/2/4
f 256/2/4 253/2/4 257/2/4
f 254/2/4 256/2/4 258/2/4
f 258/2/4 256/2/4 259/2/4
f 260/2/4 261/2/4 262/2/4
f 260/2/4 262/2/4 264/2/4
f 262/2/4 263/2/4 264/2/4
f 264/2/4 263/2/4 265/2/4
f 265/2/4 263/2/4 266/2/4
f 266/2/4 263/2/4 267/2/4
f 267/2/4 263/2/4 268/2/4
f 268/2/4 263/2/4 269/2/4
f 270/2/4 271/2/4 273/2/4
f 272/2/4 273/2/4 275/2/4
f 275/2/4 273/2/4 276/2/4
f 274/2/4 275/2/4 276/2/4
f 273/2/4 271/2/4 277/2/4
f 276/2/4 273/2/4 277/2/4
f 274/2/4 276/2/4 278/2/4
f 278/2/4 276/2/4 279/2/4
f 280/1/4 281/1/4 282/1/4
f 282/1/4 281/1/4 283/1/4
f 280/1/4 282/1/4 284/1/4
f 282/3/4 283/3/4 284/3/4
f 284/3/4 283/3/4 285/3/4
f 280/1/4 284/1/4 286/1/4
f 284/1/4 285/1/4 286/1/4
f 286/1/4 285/1/4 287/1/4
f 280/1/4 286/1/4 288/1/4
f 286/3/4 287/3/4 288/3/4
f 288/3/4 287/3/4 289/3/4
f 280/1/4 288/1/4 290/1/4
f 288/1/4 289/1/4 290/1/4
f 290/1/4 289/1/4 291/1/4
f 296/2/5 293/2/5 292/2/5
f 297/2/5 293/2/5 296/2/5
f 298/2/5 295/2/5 294/2/5
f 299/2/5 295/2/5 298/2/5
f 304/2/5 301/2/5 300/2/5
f 305/2/5 301/2/5 304/2/5
f 306/2/5 303/2/5 302/2/5
f 307/2/5 303/2/5 306/2/5
f 312/2/5 309/2/5 308/2/5
f 313/2/5 309/2/5 312/2/5
f 314/2/5 311/2/5 310/2/5
f 315/2/5 311/2/5 314/2/5
f 318/1/5 317/1/5 316/1/5
f 319/1/5 317/1/5 318/1/5
f 324/2/5 321/2/5 320/2/5
f 325/2/5 321/2/5 324/2/5
f 326/2/5 323/2/5 322/2/5
f 327/2/5 323/2/5 326/2/5
f 332/2/5 329/2/5 328/2/5
f 334/2/5 332/2/5 328/2/5
f 334/2/5 333/2/5 332/2/5
f 335/2/5 333/2/5 334/2/5
f 336/2/5 331/2/5 330/2/5
f 337/2/5 331/2/5 336/2/5
f 342/2/5 339/2/5 338/2/5
f 343/2/5 339/2/5 342/2/5
f 344/2/5 341/2/5 340/2/5
f 345/2/5 341/2/5 344/2/5
f 349/2/5 347/2/5 346/2/5
f 349/2/5 348/2/5 347/2/5
f 350/2/5 348/2/5 349/2/5
f 351/2/6 352/2/6 355/2/6
f 355/2/6 352/2/6 356/2/6
f 353/2/6 354/2/6 357/2/6
f 357/2/6 354/2/6 358/2/6
f 361/1/6 362/1/6 365/1/6
f 365/1/6 362/1/6 366/1/6
f 359/2/6 360/2/6 367/2/6
f 367/2/6 360/2/6 368/2/6
f 363/2/6 364/2/6 369/2/6
f 369/2/6 364/2/6 370/2/6
f 371/2/6 372/2/6 375/2/6
f 375/2/6 372/2/6 376/2/6
f 373/2/6 374/2/6 377/2/6
f 377/2/6 374/2/6 378/2/6
f 379/1/6 380/1/6 381/1/6
f 381/1/6 380/1/6 382/1/6
f 382/1/6 380/1/6 383/1/6
f 383/1/6 380/1/6 384/1/6
f 382/1/6 383/1/6 386/1/6
f 386/1/6 383/1/6 387/1/6
f 385/1/6 386/1/6 389/1/6
f 387/1/6 388/1/6 389/1/6
f 386/1/6 387/1/6 389/1/6
f 389/1/6 388/1/6 390/1/6
f 390/1/6 388/1/6 391/1/6
f 391/1/6 388/1/6 392/1/6
f 390/1/6 391/1/6 394/1/6
f 394/1/6 391/1/6 395/1/6
f 393/1/6 394/1/6 397/1/6
f 395/1/6 396/1/6 397/1/6
f 394/1/6 395/1/6 397/1/6
f 397/1/6 396/1/6 398/1/6
f 398/1/6 396/1/6 399/1/6
f 399/1/6 396/1/6 400/1/6
f 398/1/6 399/1/6 402/1/6
f 402/1/6 399/1/6 403/1/6
f 401/1/6 402/1/6 405/1/6
f 403/1/6 404/1/6 405/1/6
f 402/1/6 403/1/6 405/1/6
f 405/1/6 404/1/6 406/1/6
f 406/1/6 404/1/6 407/1/6
f 407/1/6 404/1/6 408/1/6
f 401/1/6 405/1/6 409/1/6
f 405/3/6 406/3/6 410/3/6
f 409/1/6 405/1/6 410/1/6
f 406/1/6 407/1/6 411/1/6
f 410/3/6 406/3/6 411/3/6
f 407/3/6 408/3/6 412/3/6
f 411/1/6 407/1/6 412/1/6
f 408/1/6 404/1/6 413/1/6
f 412/3/6 408/3/6 413/3/6
f 413/1/6 404/1/6 414/1/6
f 415/2/6 416/2/6 419/2/6
f 419/2/6 416/2/6 420/2/6
f 417/2/6 418/2/6 421/2/6
f 421/2/6 418/2/6 422/2/6
f 423/2/6 424/2/6 427/2/6
f 427/2/6 424/2/6 428/2/6
f 425/2/6 426/2/6 429/2/6
f 429/2/6 426/2/6 430/2/6
f 431/2/6 432/2/6 435/2/6
f 435/2/6 432/2/6 436/2/6
f 433/2/6 434/2/6 437/2/6
f 437/2/6 434/2/6 438/2/6
